<svg xmlns="http://www.w3.org/2000/svg" xmlns:xlink="http://www.w3.org/1999/xlink" viewBox="0 0 437.42 340.8"><defs><style>.cls-1{isolation:isolate;}.cls-2{fill:#4a49ca;}.cls-10,.cls-13,.cls-25,.cls-26,.cls-27,.cls-29,.cls-3,.cls-32,.cls-33{fill:none;}.cls-3,.cls-33{stroke:#0b43a4;}.cls-10,.cls-13,.cls-27,.cls-3{stroke-linecap:round;stroke-linejoin:round;}.cls-4{fill:#e1efff;}.cls-29,.cls-4{opacity:0.22;}.cls-5{mix-blend-mode:screen;}.cls-6{fill:#3b62c1;}.cls-7{opacity:0.5;}.cls-8{fill:#c7e1f9;}.cls-9{fill:#00ad9f;}.cls-10,.cls-13{stroke:#00ad9f;}.cls-10,.cls-14,.cls-34,.cls-36,.cls-40,.cls-41{mix-blend-mode:multiply;}.cls-11{fill:#0056ec;}.cls-12{fill:#52d2bc;}.cls-14,.cls-35,.cls-36{fill:#5275a0;}.cls-14,.cls-34{opacity:0.2;}.cls-15{fill:#739cff;}.cls-16{fill:#fff;}.cls-17{fill:#78b1ea;}.cls-18,.cls-19{fill:#d1ebff;}.cls-19{opacity:0.34;}.cls-20{fill:#00d5cf;}.cls-21{fill:url(#linear-gradient);}.cls-22{fill:#6397e3;}.cls-23{fill:#ff5f49;}.cls-24{fill:#dfe3e5;}.cls-25{stroke:#a8a8a8;}.cls-25,.cls-26,.cls-29,.cls-32,.cls-33{stroke-miterlimit:10;}.cls-26,.cls-27{stroke:#3b2f7c;}.cls-28{fill:url(#linear-gradient-2);}.cls-29{stroke:#d6451e;}.cls-30,.cls-31{opacity:0.24;}.cls-30{fill:url(#linear-gradient-3);}.cls-31{fill:url(#linear-gradient-4);}.cls-32{stroke:#f9d938;}.cls-33{stroke-dasharray:4;}.cls-36,.cls-40,.cls-41{opacity:0.22;}.cls-37{opacity:0.61;}.cls-38{fill:#efbc92;}.cls-39{fill:url(#linear-gradient-5);}.cls-40{fill:url(#linear-gradient-6);}.cls-41{fill:url(#linear-gradient-7);}.cls-42{fill:#3d76c9;}.cls-43{fill:#325ab2;}.cls-44{fill:#321c61;}.cls-45{fill:#f2b283;}.cls-46{fill:#5b1d1a;}</style><linearGradient id="linear-gradient" x1="68.08" y1="234.04" x2="138.32" y2="205.07" gradientUnits="userSpaceOnUse"><stop offset="0.01" stop-color="#7ae397"/><stop offset="1" stop-color="#51ada1"/></linearGradient><linearGradient id="linear-gradient-2" x1="289.65" y1="113.5" x2="190.32" y2="189.5" gradientUnits="userSpaceOnUse"><stop offset="0" stop-color="#ff6e3a"/><stop offset="0.98" stop-color="#ffb846"/></linearGradient><linearGradient id="linear-gradient-3" x1="189.79" y1="152.65" x2="301.66" y2="152.65" gradientUnits="userSpaceOnUse"><stop offset="0" stop-color="#fff"/><stop offset="1" stop-color="#fff" stop-opacity="0"/></linearGradient><linearGradient id="linear-gradient-4" x1="245.72" y1="132.97" x2="245.72" y2="185.59" xlink:href="#linear-gradient-3"/><linearGradient id="linear-gradient-5" x1="348.07" y1="222.33" x2="321.32" y2="303.58" gradientUnits="userSpaceOnUse"><stop offset="0" stop-color="#363990"/><stop offset="0.65" stop-color="#6d45a1"/></linearGradient><linearGradient id="linear-gradient-6" x1="296.8" y1="273.99" x2="327.69" y2="273.99" xlink:href="#linear-gradient-5"/><linearGradient id="linear-gradient-7" x1="314.79" y1="260.03" x2="358.95" y2="260.03" xlink:href="#linear-gradient-5"/></defs><title>Asset 3</title><g class="cls-1"><g id="Layer_2" data-name="Layer 2"><g id="OBJECTS"><path class="cls-2" d="M45.88,94.92c.93-.32,6-6.88,8.07-9.18a7.12,7.12,0,0,0,1.45-2.13,2.46,2.46,0,0,0-.3-2.45,3.07,3.07,0,0,0-3.53-1c-3.21.9-4,2.27-5.13,4.31C42.77,91.23,45.88,94.92,45.88,94.92Z"/><path class="cls-2" d="M80.12,106.09c3.15.48,6.5.9,9.44-.34a3.44,3.44,0,0,0,2.36-2.62,2.76,2.76,0,0,0-1.65-2.49,6.57,6.57,0,0,0-3.11-.47c-4,.13-9.08,2.1-12.49,4.18A33.67,33.67,0,0,0,80.12,106.09Z"/><path class="cls-2" d="M87,59.53c-1.47-.44-3.14-1.11-3.56-2.59a3.08,3.08,0,0,1,2.3-3.47,6.49,6.49,0,0,1,4.47.67c5.88,2.83,6.61,7.71,6.61,7.71S88.66,60,87,59.53Z"/><path class="cls-2" d="M87.22,45.86a6.33,6.33,0,0,1-3.45-1.24A2.05,2.05,0,0,1,83,43c.07-1,.41-2,2.84-2.22,7.69-.71,10.69,3.86,10.69,3.86S89.39,46.15,87.22,45.86Z"/><path class="cls-2" d="M111.76,51a12,12,0,0,0,6.71-6.19,7.56,7.56,0,0,0,.76-3.35,3.32,3.32,0,0,0-1.72-2.82,3.37,3.37,0,0,0-3.79,1.06,8,8,0,0,0-1.56,3.87C111.83,45.38,111.76,51,111.76,51Z"/><path class="cls-3" d="M89.22,172.7,62.63,159.85c-4.72-2.29-9.55-4.65-13.19-8.42-7.83-8.12-8.32-21.37-3.68-31.64S59.24,101.74,68.5,95.3,87.72,83.37,96.18,75.9c5.3-4.68,10.23-10.82,10.07-17.89A14.51,14.51,0,0,0,88.69,44.17"/><path class="cls-3" d="M114.83,42.76C114.55,49.27,108,55,106,61.14"/><path class="cls-3" d="M89.57,57.21c1.93,1.16,4.08,2,5.86,3.33,3.77,2.9,5.67,8.79,2.63,13.61"/><path class="cls-3" d="M60.6,101.3a42,42,0,0,0,24.77,2.1"/><path class="cls-3" d="M48.7,114.12a23,23,0,0,1,.7-26.21"/><path class="cls-4" d="M229.07,20c30.81-7.18,64.67-6.29,92.31,9.11C355,47.9,374.13,84.4,391.09,119c12,24.49,24.06,49.62,27.39,76.7s-3.56,56.93-24.19,74.78c-15.17,13.14-35.45,18.19-54.14,25.48-32.19,12.57-61.45,32.77-95,40.94A141.12,141.12,0,0,1,149.34,326c-27-13.56-48.73-35.37-71.58-55.12C56.87,252.79,34.33,235.8,19,212.79,3.89,190-3.25,161.61,1.41,134.66S23,82.72,47.32,70.18a107,107,0,0,1,35.5-10.85C94.39,57.88,198.23,27.21,229.07,20Z"/><g class="cls-5"><path class="cls-6" d="M283.37,82.9H290a1.58,1.58,0,0,0,1.58-1.58V65.9A1.58,1.58,0,0,0,290,64.32h-6.64c-.19-.81-.41-1.62-.65-2.41l5.76-3.32a1.58,1.58,0,0,0,.57-2.16l-7.7-13.36a1.58,1.58,0,0,0-2.16-.57l-5.77,3.32c-.57-.6-1.16-1.18-1.76-1.76h0L275,38.3a1.59,1.59,0,0,0-.58-2.16l-13.35-7.71a1.57,1.57,0,0,0-2.16.58l-3.33,5.76c-.79-.24-1.59-.46-2.41-.65h0V27.47a1.58,1.58,0,0,0-1.58-1.58H236.16a1.58,1.58,0,0,0-1.58,1.58v6.65h0c-.81.19-1.62.41-2.41.65L228.85,29a1.59,1.59,0,0,0-2.17-.58l-13.35,7.71a1.58,1.58,0,0,0-.57,2.16l3.32,5.76h0c-.6.58-1.19,1.16-1.76,1.76l-5.76-3.32a1.58,1.58,0,0,0-2.16.57l-7.71,13.36a1.58,1.58,0,0,0,.58,2.16L205,61.91c-.24.79-.45,1.6-.64,2.41h-6.65a1.58,1.58,0,0,0-1.58,1.58V81.32a1.58,1.58,0,0,0,1.58,1.58h6.65c.19.81.4,1.62.64,2.41h0l-5.76,3.33a1.57,1.57,0,0,0-.58,2.16l7.71,13.35a1.58,1.58,0,0,0,2.16.58l5.76-3.33c.57.6,1.16,1.19,1.76,1.76h0l-3.32,5.77a1.58,1.58,0,0,0,.57,2.16l13.35,7.71a1.6,1.6,0,0,0,2.17-.58l3.32-5.76c.79.24,1.6.46,2.41.64h0v6.65a1.58,1.58,0,0,0,1.58,1.58h15.42a1.58,1.58,0,0,0,1.58-1.58V113.1h0c.82-.18,1.62-.4,2.41-.64l3.33,5.76a1.59,1.59,0,0,0,2.16.58l13.35-7.71a1.6,1.6,0,0,0,.58-2.16l-3.33-5.77h0c.6-.57,1.19-1.16,1.76-1.76l5.77,3.33a1.59,1.59,0,0,0,2.16-.58l7.7-13.35a1.58,1.58,0,0,0-.57-2.16l-5.76-3.33h0C283,84.52,283.18,83.71,283.37,82.9ZM248.31,95.73A22.56,22.56,0,1,1,266,78,22.57,22.57,0,0,1,248.31,95.73Z"/></g><g class="cls-7"><path class="cls-8" d="M232.6,279.59h6.64a1.59,1.59,0,0,0,1.59-1.59V262.59a1.58,1.58,0,0,0-1.59-1.58H232.6c-.19-.82-.41-1.63-.65-2.42l5.76-3.32a1.59,1.59,0,0,0,.58-2.16l-7.71-13.35a1.58,1.58,0,0,0-2.16-.58l-5.77,3.33c-.57-.6-1.15-1.19-1.76-1.76h0l3.33-5.77a1.58,1.58,0,0,0-.58-2.16l-13.35-7.71a1.58,1.58,0,0,0-2.16.58l-3.33,5.76c-.79-.24-1.59-.46-2.41-.65h0v-6.65a1.58,1.58,0,0,0-1.58-1.58H185.4a1.59,1.59,0,0,0-1.59,1.58v6.65h0c-.81.19-1.62.41-2.41.65l-3.32-5.76a1.59,1.59,0,0,0-2.16-.58l-13.35,7.71A1.58,1.58,0,0,0,162,235l3.33,5.77h0c-.6.57-1.19,1.16-1.76,1.76l-5.76-3.33a1.57,1.57,0,0,0-2.16.58l-7.71,13.35a1.58,1.58,0,0,0,.58,2.16l5.76,3.32c-.24.79-.46,1.6-.65,2.42H147a1.58,1.58,0,0,0-1.58,1.58V278a1.59,1.59,0,0,0,1.58,1.59h6.65c.19.81.41,1.61.65,2.4h0l-5.76,3.32a1.58,1.58,0,0,0-.58,2.16l7.71,13.35a1.57,1.57,0,0,0,2.16.58l5.76-3.33c.57.61,1.16,1.19,1.76,1.77h0L162,305.61a1.58,1.58,0,0,0,.58,2.16l13.35,7.71a1.58,1.58,0,0,0,2.16-.58l3.32-5.76c.79.24,1.6.46,2.41.65h0v6.65A1.59,1.59,0,0,0,185.4,318h15.41a1.58,1.58,0,0,0,1.58-1.58v-6.65h0c.82-.19,1.62-.41,2.41-.65l3.33,5.76a1.58,1.58,0,0,0,2.16.58l13.35-7.71a1.58,1.58,0,0,0,.58-2.16l-3.33-5.76h0c.61-.58,1.19-1.16,1.76-1.77l5.77,3.33a1.58,1.58,0,0,0,2.16-.58l7.71-13.35a1.6,1.6,0,0,0-.58-2.16L232,282h0C232.19,281.2,232.41,280.4,232.6,279.59Zm-35.06,12.82a22.56,22.56,0,1,1,17.7-17.73A22.57,22.57,0,0,1,197.54,292.41Z"/></g><g class="cls-5"><path class="cls-6" d="M321.62,47.37h2.29a.54.54,0,0,0,.55-.55V41.5a.55.55,0,0,0-.55-.55h-2.29c-.07-.28-.14-.56-.23-.83l2-1.15a.55.55,0,0,0,.2-.75l-2.66-4.61a.55.55,0,0,0-.75-.2l-2,1.15c-.19-.21-.4-.41-.6-.61h0l1.15-2a.55.55,0,0,0-.2-.75l-4.61-2.66a.54.54,0,0,0-.74.2l-1.15,2c-.28-.08-.55-.16-.84-.22h0v-2.3a.55.55,0,0,0-.54-.55h-5.33a.55.55,0,0,0-.54.55v2.3h0c-.29.06-.56.14-.84.22l-1.15-2a.54.54,0,0,0-.74-.2l-4.61,2.66a.54.54,0,0,0-.2.75l1.15,2h0c-.2.2-.41.4-.6.61l-2-1.15a.55.55,0,0,0-.75.2l-2.66,4.61a.54.54,0,0,0,.2.75l2,1.15c-.08.27-.15.55-.22.83H292a.55.55,0,0,0-.55.55v5.32a.54.54,0,0,0,.55.55h2.29c.07.28.14.56.23.83h0l-2,1.15a.54.54,0,0,0-.2.75L295,54.71a.55.55,0,0,0,.75.2l2-1.15c.19.21.4.41.6.61h0l-1.15,2a.54.54,0,0,0,.2.75L302,59.77a.54.54,0,0,0,.74-.2l1.15-2c.28.08.55.16.84.22h0v2.3a.55.55,0,0,0,.54.55h5.33a.55.55,0,0,0,.54-.55V57.8h0c.29-.06.56-.14.84-.22l1.15,2a.54.54,0,0,0,.74.2l4.61-2.66a.54.54,0,0,0,.2-.75l-1.15-2h0c.2-.2.41-.4.6-.61l2,1.15a.55.55,0,0,0,.75-.2l2.66-4.61a.55.55,0,0,0-.2-.75l-2-1.15h0C321.48,47.93,321.55,47.65,321.62,47.37ZM309.51,51.8a7.8,7.8,0,1,1,6.11-6.12A7.8,7.8,0,0,1,309.51,51.8Z"/></g><path class="cls-9" d="M55.28,206.87c-5.49-4.85-11-9.77-15.1-15.87-3.53-5.31-5.81-11.34-8.89-16.93-2-3.61-4.35-7.1-5.5-11.06s-.88-8.65,1.94-11.67,8-3.63,12-2,7,5,9.37,8.6a41.13,41.13,0,0,1,6,15.92c.78,5.13.58,10.36,1.37,15.48a51.79,51.79,0,0,0,4.37,13.72c1.83,4,6.47,11,7.66,15.1C65.21,219.79,57.62,208.94,55.28,206.87Z"/><path class="cls-10" d="M36.09,156.58c5.22,2.28,7.29,8.5,8.38,14.1,1.24,6.36,1,13.25,3.88,19,5.5,10.9,12.65,23.32,18,27"/><path class="cls-11" d="M28.27,192c-4.55-1.8-10.64-2.54-13.56,1.4-2.44,3.29-1.18,8,.51,11.69,1.43,3.15,3.24,6.36,6.25,8.07a17.82,17.82,0,0,0,6.81,1.8A162.57,162.57,0,0,0,48,216.05a41.35,41.35,0,0,1,23.23,7.87C63.12,208.84,43.6,198,28.27,192Z"/><path class="cls-3" d="M20.28,201.76c5.8.24,11.65.65,17.21,2.3s27.58,11.72,31,16"/><path class="cls-12" d="M370.9,223.6c5.46-9,2.67-20.57,4.57-30.93a34.24,34.24,0,0,1,12.24-20.38c4-3.16,9.56-5.42,14.06-3,3.85,2,4.34-3.83,4.46-6.25.34-6.87-.75-13.09,5.28-17.82,4.91-3.85,12.92-6.5,19.21-5.88a7.76,7.76,0,0,1,5,2.28c2,2.15,2.1,5.48,1.11,8.21-2.84,7.86-11.13,13.3-15.55,20.28-2,3.19-3.77,7-2.63,10.86.58,2,2.58,3.39,2.78,5.36.31,3-3.08,5.7-5.46,6.84a28.92,28.92,0,0,1-9.72,2.69c-6.47.6-8.42,3.08-7.13,9.62,1,4.89-.24,8-3.79,11.47a76,76,0,0,1-11.7,9.22c-3.4,2.18-7,4.1-10,6.79s-5.45,6.31-5.64,10.34a16.38,16.38,0,0,1-2.1-10.63C366.33,229.05,369,226.68,370.9,223.6Z"/><path class="cls-13" d="M368.43,238.05a26,26,0,0,1,2.1-7.2c1.23-2.39,2.75-4.61,4.14-6.92,3.79-6.33,6-13.56,8-20.61,1.89-6.62,6.8-13.45,11.45-18.44,3.61-3.87,8-6.93,11.66-10.74a40.08,40.08,0,0,0,6.58-9.14,32.22,32.22,0,0,1,3-5.3c1.52-1.89,3.6-3.24,5.4-4.86a22.94,22.94,0,0,0,5.72-7.89"/><path class="cls-14" d="M433.38,219.91a44,44,0,0,1-4.73,2.31,56.79,56.79,0,0,1-19.77,4.38c-9.88.37-20-1.81-29.52,1a29.09,29.09,0,0,0-11.65,6.75c-.33.16-.66.34-1,.53-.79-6.69,15.89-15.41,21-17.68A60.43,60.43,0,0,1,417,212.09c4.38.35,8.87,1.21,12.48,3.7A13.36,13.36,0,0,1,433.38,219.91Z"/><path class="cls-15" d="M417,216.08c4.38.35,8.87,1.21,12.48,3.7s6.16,6.94,5.32,11.25c-1,5-6.17,8.29-11.25,8.91s-10.15-.78-15.16-1.81a107.93,107.93,0,0,0-33.78-1.55,19.56,19.56,0,0,0-7.92,2.31c-.79-6.7,15.9-15.41,21-17.68A60.49,60.49,0,0,1,417,216.08Z"/><path class="cls-3" d="M371.06,234.67c8.28-7.28,29.55-12.22,44.58-10.63,4.53.48,9.1,1.83,12.59,4.77"/><path class="cls-2" d="M411.52,256.11a1.66,1.66,0,0,1,1.49.74,1.22,1.22,0,0,1-.12,1.31c-2.37,2.66-7.1.75-7.1.75S407.17,256.11,411.52,256.11Z"/><path class="cls-2" d="M402.49,253.09c-3-3.18-5,4-3.72,7.3C398.77,260.39,405.05,255.84,402.49,253.09Z"/><path class="cls-2" d="M408.34,265a2,2,0,0,1,2.33.61,1.86,1.86,0,0,1-.05,1.84,4.16,4.16,0,0,1-1.76,1.51,6.44,6.44,0,0,1-6.18-.63A46.75,46.75,0,0,1,408.34,265Z"/><path class="cls-2" d="M390.16,290.37a1.67,1.67,0,0,1,1.55.84,1.46,1.46,0,0,1,0,1.14,3.4,3.4,0,0,1-.66,1,3.62,3.62,0,0,1-2.17,1.11,7,7,0,0,1-4.16-1S388.61,290.34,390.16,290.37Z"/><path class="cls-2" d="M386.4,279.3a4.82,4.82,0,0,0,2.3-4.48,2.64,2.64,0,0,0-.43-1.26,2.45,2.45,0,0,0-2.75-.66,6.26,6.26,0,0,0-2.39,1.82c-1.24,1.36-2.18,3.77-3.16,5.32A8.58,8.58,0,0,0,386.4,279.3Z"/><path class="cls-3" d="M410,258.08c-3.77-.06-7.33,2.06-9.8,4.91s-4,6.38-5.43,9.88A56.61,56.61,0,0,1,390,283.13c-2,3.08-5,5.82-8.67,6.24-4.45.5-8.58-2.57-11.24-6.17s-4.37-7.85-7.11-11.39a8.79,8.79,0,0,0-4.87-3.57c-2.69-.54-5.3,1-7.6,2.51"/><path class="cls-3" d="M408.6,266.75a21.62,21.62,0,0,1-11.79,1.41"/><path class="cls-3" d="M401.05,255.47a17.38,17.38,0,0,0-2.07,3.9,6.68,6.68,0,0,0,.43,4.61"/><path class="cls-3" d="M389.19,292.62a7.37,7.37,0,0,1-5.41.58,8.72,8.72,0,0,1-4.55-3.79"/><path class="cls-3" d="M385.5,276.71a73.43,73.43,0,0,0-8.68,5.55c-1.33,1-3.32,3.18-3.39,4.41"/><path class="cls-14" d="M365.6,286.6l-305.73.63a7.38,7.38,0,0,1-7.4-7.37L52.05,77.32a7.4,7.4,0,0,1,7.37-7.4l305.73-.63a7.38,7.38,0,0,1,7.4,7.37L373,279.2A7.39,7.39,0,0,1,365.6,286.6Z"/><path class="cls-16" d="M379.59,272.54v0a7.39,7.39,0,0,1-7.37,7.38l-195.63.4-110.09.23a7.39,7.39,0,0,1-7.41-7.37L58.68,70.66a7.39,7.39,0,0,1,7.37-7.4l305.72-.63A7.39,7.39,0,0,1,379.18,70l0,7.89Z"/><path class="cls-17" d="M371.28,64.39,66.86,65a8,8,0,0,0-8,8v7l320.5-.66v-7A8,8,0,0,0,371.28,64.39Z"/><rect class="cls-16" x="67.18" y="260.89" width="41.11" height="6.01" rx="2.62" transform="matrix(1, 0, 0, 1, -0.54, 0.18)"/><rect class="cls-18" x="63.6" y="192.37" width="99.53" height="29.54" rx="3.11"/><rect class="cls-19" x="69.47" y="184.5" width="99.53" height="29.54" rx="3.11"/><path class="cls-20" d="M376.9,131.23h0a22.74,22.74,0,0,1-22.74-22.74h0A22.74,22.74,0,0,1,376.9,85.75h0a22.74,22.74,0,0,1,22.74,22.74h0A22.74,22.74,0,0,1,376.9,131.23Z"/><path class="cls-16" d="M76.42,72.38a2.59,2.59,0,1,1-2.6-2.59A2.59,2.59,0,0,1,76.42,72.38Z"/><path class="cls-16" d="M87.38,72.36a2.59,2.59,0,1,1-2.59-2.59A2.58,2.58,0,0,1,87.38,72.36Z"/><path class="cls-16" d="M98.35,72.33a2.59,2.59,0,1,1-2.6-2.58A2.6,2.6,0,0,1,98.35,72.33Z"/><rect class="cls-14" x="38.85" y="211.18" width="119.42" height="28.05" rx="3.11"/><rect class="cls-21" x="36.85" y="208.26" width="119.42" height="28.05" rx="3.11"/><rect class="cls-19" x="227.54" y="171.19" width="119.42" height="65.55" rx="3.11"/><rect class="cls-12" x="237.77" y="171.03" width="119.42" height="72.21" rx="3.11"/><rect class="cls-22" x="71.23" y="117.35" width="31.63" height="5.06" rx="2.2" transform="translate(-0.25 0.18) rotate(-0.12)"/><rect class="cls-23" x="71.23" y="162.5" width="19.95" height="5.06" rx="2.2" transform="translate(-0.34 0.17) rotate(-0.12)"/><rect class="cls-22" x="71.23" y="126.21" width="66.66" height="5.06" rx="2.2" transform="translate(-0.27 0.22) rotate(-0.12)"/><rect class="cls-24" x="71.23" y="142.24" width="84.99" height="1.84" rx="0.8" transform="translate(-0.3 0.24) rotate(-0.12)"/><rect class="cls-24" x="71.23" y="138.19" width="84.99" height="1.84" rx="0.8" transform="matrix(1, 0, 0, 1, -0.29, 0.24)"/><rect class="cls-24" x="71.24" y="146.28" width="84.99" height="1.84" rx="0.8" transform="translate(-0.3 0.24) rotate(-0.12)"/><rect class="cls-24" x="71.24" y="150.33" width="84.99" height="1.84" rx="0.8" transform="translate(-0.31 0.24) rotate(-0.12)"/><rect class="cls-24" x="71.24" y="154.37" width="65.57" height="1.84" rx="0.8" transform="translate(-0.32 0.22) rotate(-0.12)"/><rect class="cls-24" x="179.95" y="258.69" width="55.14" height="1.84" rx="0.8" transform="translate(-0.54 0.43) rotate(-0.12)"/><rect class="cls-24" x="179.94" y="254.64" width="55.14" height="1.84" rx="0.8" transform="translate(-0.53 0.43) rotate(-0.12)"/><rect class="cls-24" x="179.95" y="262.74" width="55.14" height="1.84" rx="0.8" transform="translate(-0.54 0.43) rotate(-0.12)"/><rect class="cls-24" x="179.95" y="266.78" width="55.14" height="1.84" rx="0.8" transform="translate(-0.55 0.43) rotate(-0.12)"/><rect class="cls-24" x="179.96" y="270.82" width="42.54" height="1.84" rx="0.8" transform="translate(-0.56 0.42) rotate(-0.12)"/><rect class="cls-24" x="241.53" y="258.72" width="55.14" height="1.84" rx="0.8" transform="translate(-0.54 0.56) rotate(-0.12)"/><rect class="cls-24" x="241.53" y="254.67" width="55.14" height="1.84" rx="0.8" transform="translate(-0.53 0.56) rotate(-0.12)"/><rect class="cls-24" x="241.54" y="262.76" width="55.14" height="1.84" rx="0.8" transform="translate(-0.54 0.56) rotate(-0.12)"/><rect class="cls-24" x="241.54" y="266.81" width="55.14" height="1.84" rx="0.8" transform="translate(-0.55 0.56) rotate(-0.12)"/><rect class="cls-24" x="241.55" y="270.85" width="42.54" height="1.84" rx="0.8" transform="translate(-0.56 0.54) rotate(-0.12)"/><rect class="cls-24" x="303.12" y="258.72" width="55.14" height="1.84" rx="0.8" transform="translate(-0.54 0.68) rotate(-0.12)"/><rect class="cls-24" x="303.12" y="254.67" width="55.14" height="1.84" rx="0.8" transform="matrix(1, 0, 0, 1, -0.53, 0.68)"/><rect class="cls-24" x="303.13" y="262.76" width="55.14" height="1.84" rx="0.8" transform="translate(-0.54 0.68) rotate(-0.12)"/><rect class="cls-24" x="303.13" y="266.81" width="55.14" height="1.84" rx="0.8" transform="translate(-0.55 0.68) rotate(-0.12)"/><rect class="cls-24" x="303.14" y="270.85" width="42.54" height="1.84" rx="0.8" transform="translate(-0.56 0.67) rotate(-0.12)"/><rect class="cls-24" x="71.24" y="269.61" width="18.76" height="1.84" rx="0.8" transform="translate(-0.56 0.17) rotate(-0.12)"/><rect class="cls-24" x="97.09" y="269.61" width="18.76" height="1.84" rx="0.8" transform="translate(-0.56 0.22) rotate(-0.12)"/><rect class="cls-24" x="122.94" y="269.61" width="18.76" height="1.84" rx="0.8" transform="translate(-0.56 0.27) rotate(-0.12)"/><rect class="cls-24" x="148.79" y="269.61" width="18.76" height="1.84" rx="0.8" transform="translate(-0.56 0.33) rotate(-0.12)"/><path class="cls-16" d="M142.08,227.07H51a4.78,4.78,0,0,1-4.78-4.78h0A4.79,4.79,0,0,1,51,217.5h91a4.79,4.79,0,0,1,4.79,4.79h0A4.78,4.78,0,0,1,142.08,227.07Z"/><circle class="cls-16" cx="136.25" cy="222.29" r="10.61" transform="translate(-111.48 303.56) rotate(-76.66)"/><line class="cls-25" x1="51.85" y1="220.09" x2="51.85" y2="224.52"/><path class="cls-26" d="M139.05,221.76a3.45,3.45,0,1,1-3.45-3.44A3.46,3.46,0,0,1,139.05,221.76Z"/><line class="cls-27" x1="140.35" y1="226.26" x2="138.01" y2="224.22"/><path class="cls-14" d="M315.87,195.77h0a3.12,3.12,0,0,1-3,3.21l-79.8.18-44.91.1a3.13,3.13,0,0,1-3-3.21L185,107.79a3.12,3.12,0,0,1,3-3.22l124.71-.28a3.13,3.13,0,0,1,3,3.21v3.44Z"/><path class="cls-28" d="M311.69,190.7h0a3.13,3.13,0,0,1-3,3.22l-79.81.17-44.9.1a3.13,3.13,0,0,1-3-3.21l-.16-88.27a3.11,3.11,0,0,1,3-3.22l124.71-.28a3.13,3.13,0,0,1,3,3.21v3.44Z"/><polyline class="cls-29" points="302.69 186.24 189.79 186.24 189.79 109.75"/><polygon class="cls-30" points="189.79 164.43 218.47 134.47 225.84 146.33 236.73 119.13 244.41 141.78 253.72 126.98 266.69 154.34 290.81 126.8 301.66 149.69 301.66 186.17 189.79 186.17 189.79 164.43"/><polygon class="cls-31" points="189.79 154.95 221.57 168.95 245.2 120.91 258.11 154.95 279.3 132.78 301.66 156.97 301.66 186.17 189.79 186.17 189.79 154.95"/><line class="cls-32" x1="284.54" y1="108.49" x2="300.79" y2="108.49"/><line class="cls-32" x1="284.54" y1="111.17" x2="300.79" y2="111.17"/><line class="cls-32" x1="284.54" y1="113.85" x2="300.79" y2="113.85"/><line class="cls-32" x1="274" y1="108.49" x2="281.37" y2="108.49"/><line class="cls-32" x1="274" y1="111.17" x2="281.37" y2="111.17"/><line class="cls-32" x1="274" y1="113.85" x2="281.37" y2="113.85"/><path class="cls-29" d="M196.49,142.21c4.45,2.22,7.22,6.77,9.31,11.28s3.83,9.32,7.16,13,8.85,6,13.36,3.93c4-1.84,5.9-6.34,7.33-10.49A218.32,218.32,0,0,0,243,122.74a16.82,16.82,0,0,1,1.48-5.47,5.49,5.49,0,0,1,4.46-3.1c2.23,0,4,1.73,5.45,3.46,9.45,11.54,13.56,26.51,21.59,39.09,1.57,2.46,3.64,5.05,6.55,5.36,2.32.24,4.51-1.06,6.41-2.41A63.44,63.44,0,0,0,303.6,145"/><path class="cls-16" d="M197.36,141.83a.87.87,0,1,1-.87-.87A.87.87,0,0,1,197.36,141.83Z"/><path class="cls-16" d="M211,162.63a.87.87,0,1,1-.87-.87A.87.87,0,0,1,211,162.63Z"/><circle class="cls-16" cx="241.13" cy="132.5" r="0.87"/><path class="cls-16" d="M239.69,142.24a.87.87,0,1,1-.87-.87A.87.87,0,0,1,239.69,142.24Z"/><path class="cls-16" d="M304.47,145.24a.87.87,0,1,1-.87-.87A.86.86,0,0,1,304.47,145.24Z"/><path class="cls-16" d="M298.35,152.24a.87.87,0,1,1-.87-.87A.87.87,0,0,1,298.35,152.24Z"/><path class="cls-16" d="M237.06,151.78a.87.87,0,1,1-.87-.87A.87.87,0,0,1,237.06,151.78Z"/><path class="cls-16" d="M269.89,144a.87.87,0,1,1-.87-.87A.87.87,0,0,1,269.89,144Z"/><line class="cls-33" x1="247.24" y1="99.22" x2="247.24"/><circle class="cls-18" cx="200.95" cy="223.72" r="18.15"/><circle class="cls-16" cx="200.95" cy="223.72" r="7.82"/><polygon class="cls-16" points="207.52 203.9 200.36 223.72 223.36 218.31 207.52 203.9"/><g class="cls-34"><path class="cls-35" d="M331.3,150a8,8,0,0,0,1.28,5.08,6.87,6.87,0,0,0,4.83,2.6A8.52,8.52,0,0,0,345,144c-1.87-2.43-6-4.19-9.06-3.17S331.43,147.12,331.3,150Z"/><path class="cls-35" d="M293.64,151.34a13,13,0,0,0-5.92-4.37,3.14,3.14,0,0,0-1.76-.16,2.69,2.69,0,0,0-1.44,1.07,5.81,5.81,0,0,0-.5,5.52,10.37,10.37,0,0,0,3.67,4.37,55.35,55.35,0,0,0,5,3,4.24,4.24,0,0,0,1.87.73,3.57,3.57,0,0,0,1.81-.54,3.75,3.75,0,0,0,1.59-1.38,1.57,1.57,0,0,0-.25-1.89,8.4,8.4,0,0,1-1.23-2A29.54,29.54,0,0,0,293.64,151.34Z"/><path class="cls-35" d="M362.82,313.7a1.38,1.38,0,0,1-1,.53c-1.53,0-3.15-2.16-3.86-3.27a24.93,24.93,0,0,1-2.19-4.92q-2.06-5.71-4.1-11.42c-5.1-14.2-10.59-28.32-14.93-42.78q-2.18-7.4-4.21-14.83c-4.34,4.25-7.61,10.13-10.45,15.47-9,16.88-10.45,36.07-14.86,54.42-.33,1.39-.73,6.17-2,7.08-4.89,3.52-4.19-8.86-4.23-10.82a237.24,237.24,0,0,1,2.28-38.77,245,245,0,0,1,6.34-30.81c2.44-8.86,5.18-18,9.56-26.08,2-3.76,16.26,4.56,20.34,6,2.87,1,7,1.49,9,3.95,2.17,2.61,2.09,7.66,2.72,10.92q2.76,14.2,5.2,28.48c2.64,15.34,3.41,30.88,6.5,46.17a25.4,25.4,0,0,1,.79,7.19A7.15,7.15,0,0,1,362.82,313.7Z"/><path class="cls-36" d="M331.67,234.09c.36,1.31.47,1.61.83,2.92-4.25,3.94-8.41,11.63-10.45,15.47-9,16.88-10.45,36.07-14.86,54.42-.33,1.39-.73,6.17-2,7.08-1.93,1.39-3,.31-3.57-1.63a52.87,52.87,0,0,0,1.09-5.45c4.41-18.35,5.88-37.54,14.86-54.42C320.41,247.14,327.33,238.34,331.67,234.09Z"/><path class="cls-36" d="M363.72,310.21a7.15,7.15,0,0,1-.9,3.49,1.38,1.38,0,0,1-1,.53c-1,0-2.06-.92-2.86-1.88a13.11,13.11,0,0,0,.31-2.14,25.4,25.4,0,0,0-.79-7.19c-3.09-15.29-3.86-30.83-6.51-46.17q-2.43-14.27-5.19-28.48c-.63-3.27-.56-8.31-2.72-10.92-2-2.46-6.16-2.94-9-3.95s-10.26-5.15-15.39-6.53c3.16-2.29,16,5.17,19.87,6.53,2.87,1,7,1.49,9,3.95,2.17,2.61,2.09,7.65,2.72,10.92q2.76,14.2,5.2,28.48c2.64,15.34,3.41,30.88,6.5,46.17A25.4,25.4,0,0,1,363.72,310.21Z"/><path class="cls-35" d="M354.62,190.77c0,1.95-.13,3.89-.28,5.84s-.34,4.11-.59,6.15A119.6,119.6,0,0,1,350,221.12l-19.39-4.75-7.7-1.89-.47-.11-6.23-1.57s4.7-21.77,6.53-30.46c1.1-5.24,2.44-10.62,5.72-14.86,2.86-3.69,10.06-8.84,15.13-7.17,3.76,1.24,6.65,6.66,8.3,10.95.42,1.08.75,2.09,1,2.94.34,1.15.62,2.31.85,3.49A61.48,61.48,0,0,1,354.62,190.77Z"/><g class="cls-37"><path class="cls-35" d="M362.62,183.25a4.85,4.85,0,0,1,.54,3.47,5,5,0,0,1-2.27,2.32,93.83,93.83,0,0,1-28.59,12,2.94,2.94,0,0,1,.06-3.45,8.24,8.24,0,0,1,2.83-2.33,171.39,171.39,0,0,1,17.28-9c-2.82-5.22-3.9-9.82-6.73-15-.8-1.48,4.6-5.15,6.7-3A51,51,0,0,1,362.62,183.25Z"/><path class="cls-35" d="M354.62,190.77c0,1.95-.13,3.89-.28,5.84a93,93,0,0,1-21.6,8,3,3,0,0,1,.05-3.45,8.49,8.49,0,0,1,2.84-2.33,170.33,170.33,0,0,1,17.28-9c3.46-2.78-.52-9.18-3.35-14.4-.69-1.28-.12-4.84,2.31-4.22.42,1.08.75,2.09,1,2.94A54,54,0,0,1,354.62,190.77Z"/><path class="cls-35" d="M326.32,197.81c-1.11.38-2.24.64-2.7,1.7a6.93,6.93,0,0,0,.2,4.22,4.41,4.41,0,0,0,2.54,2.7c1.34.43,2.61-.51,3.72-1.24a51.94,51.94,0,0,0,4.26-3.43,4.07,4.07,0,0,0,1.26-1.42,3.26,3.26,0,0,0,.11-1.78,3.47,3.47,0,0,0-.7-1.86,1.47,1.47,0,0,0-1.75-.4,7.82,7.82,0,0,1-2.17.44A29.9,29.9,0,0,0,326.32,197.81Z"/><path class="cls-35" d="M326.12,199.15c-1.22.44-2-.62-2.57.56a9.13,9.13,0,0,0-.26,6.16,4.67,4.67,0,0,0,2.68,3c1.44.45,2.84-.63,4-1.48a60.33,60.33,0,0,0,4.67-4,4.73,4.73,0,0,0,1.39-1.63,4,4,0,0,0,.16-2,4,4,0,0,0-.73-2.09,1.5,1.5,0,0,0-1.87-.41,8.48,8.48,0,0,1-2.35.55A29,29,0,0,0,326.12,199.15Z"/></g><path class="cls-35" d="M317.16,166.82a3.91,3.91,0,0,1-1.27.15,3.07,3.07,0,0,1-1.39-.47L303,159.72l-2.82-1.66c-.54-.32-1.65-1.29-2.34-1.2a.52.52,0,0,0-.31.18L293.87,161a.59.59,0,0,0,.05.84q5.79,4.88,11.74,9.58c3.14,2.48,6.83,6.74,11.12,6.81,4.07.06,7.82-2.39,11.29-4.23s7.07-3,9.73-5.87c1.25-1.35,3.74-5.16,2.3-7-.9-1.18-2.94-.86-4.19-.66a26.84,26.84,0,0,0-5.23,1.37,72.71,72.71,0,0,0-7.57,2.83L319.33,166A21,21,0,0,1,317.16,166.82Z"/><path class="cls-35" d="M343.61,163.34a2.46,2.46,0,0,0-.65.32,5.52,5.52,0,0,1-.88.34,6.83,6.83,0,0,1-1.81.27c-.89,0-3.15-.28-3.14-1.15v-6.27l6.48-1.76v4C343.61,160.51,343.55,161.93,343.61,163.34Z"/><path class="cls-35" d="M364.37,183.87a4.86,4.86,0,0,1,.54,3.47,5,5,0,0,1-2.27,2.32,93.85,93.85,0,0,1-28.59,12,2.94,2.94,0,0,1,.06-3.45,8.27,8.27,0,0,1,2.83-2.34,173.47,173.47,0,0,1,17.28-9q-4.23-7.83-8.48-15.66a19.29,19.29,0,0,1-2-4.62c-.78-3.24.43-5.89,3.61-3.62a50.26,50.26,0,0,1,6.84,5.86A51.16,51.16,0,0,1,364.37,183.87Z"/><path class="cls-35" d="M326.7,198.77c-1.12.38-2.25.64-2.7,1.69a6.88,6.88,0,0,0,.2,4.23,4.39,4.39,0,0,0,2.53,2.7c1.34.43,2.62-.51,3.73-1.25a51.27,51.27,0,0,0,4.25-3.42A4,4,0,0,0,336,201.3a4.46,4.46,0,0,0-.6-3.64,1.47,1.47,0,0,0-1.75-.4,7.68,7.68,0,0,1-2.16.44A28.85,28.85,0,0,0,326.7,198.77Z"/><path class="cls-35" d="M303.73,308.43a4.34,4.34,0,0,0,3.77-1.76l.15,6.19a4.68,4.68,0,0,1-.19,1.76,3,3,0,0,1-2.52,1.61c-4.8.81-9.68.34-14.52-.13a1.62,1.62,0,0,1-.74-.21,1.64,1.64,0,0,1-.33-1.84,3.37,3.37,0,0,1,1.22-1.39c2.18-1.57,4.63-2.42,6.88-3.79.88-.54,1.94-1.78,2.94-1.84.58,0,1,.42,1.5.73A4.32,4.32,0,0,0,303.73,308.43Z"/><path class="cls-35" d="M359.85,308.43a4.35,4.35,0,0,0,3.77-1.76l.14,6.19a4.48,4.48,0,0,1-.18,1.76,3,3,0,0,1-2.52,1.61c-4.81.81-9.69.34-14.52-.13a1.58,1.58,0,0,1-.74-.21,1.64,1.64,0,0,1-.33-1.84,3.31,3.31,0,0,1,1.22-1.39c2.17-1.57,4.63-2.42,6.88-3.79.88-.54,1.94-1.78,2.94-1.84.57,0,1,.42,1.5.73A4.32,4.32,0,0,0,359.85,308.43Z"/><path class="cls-35" d="M345.74,153.35a8.71,8.71,0,0,1-8.33,4.32,7.06,7.06,0,0,1-4.47-2.16,7.46,7.46,0,0,0,2.56.74,8.52,8.52,0,0,0,7.63-13.68,6.32,6.32,0,0,0-.7-.77,8.39,8.39,0,0,1,3.31,11.55Z"/><path class="cls-35" d="M330.54,138.19a5.19,5.19,0,0,0,3.11,5.27,6.76,6.76,0,0,0,6.28-.61,3.43,3.43,0,0,0,3.69,4.05,4.13,4.13,0,0,0,1,5.55,1.76,1.76,0,0,0-.36,2.79,2.33,2.33,0,0,0,3-.15,3.51,3.51,0,0,0,.94-3.07,5.73,5.73,0,0,0,.91-11.3,5.57,5.57,0,0,0-9-5.4c.15-.12-1.34-.89-1.46-.95a5,5,0,0,0-2-.55,6.59,6.59,0,0,0-3.69,1,5.46,5.46,0,0,0-2.32,2.57A3.89,3.89,0,0,0,330.54,138.19Z"/><ellipse class="cls-35" cx="344.12" cy="152.58" rx="1.6" ry="1.85"/><path class="cls-35" d="M344.82,178.18c-.24,1.17-.25,2.37-.44,3.55a5.56,5.56,0,0,1-1.47,3.19,2.74,2.74,0,0,1-3.28.45,3.64,3.64,0,0,1-1.24-3,47.65,47.65,0,0,1,.83-5s2.19.59,2.75.72A8.52,8.52,0,0,0,344.82,178.18Z"/></g><path class="cls-38" d="M326.49,149.63a8,8,0,0,0,1.27,5.08,6.87,6.87,0,0,0,4.83,2.6,8.52,8.52,0,0,0,7.64-13.68c-1.88-2.42-6-4.19-9.07-3.16S326.62,146.76,326.49,149.63Z"/><path class="cls-38" d="M288.82,151a13,13,0,0,0-5.92-4.37,3.22,3.22,0,0,0-1.76-.16,2.67,2.67,0,0,0-1.43,1.07,5.82,5.82,0,0,0-.51,5.52,10.48,10.48,0,0,0,3.68,4.38,57.53,57.53,0,0,0,5,3,4.28,4.28,0,0,0,1.88.73,3.63,3.63,0,0,0,1.81-.54,3.79,3.79,0,0,0,1.58-1.38,1.57,1.57,0,0,0-.24-1.89,8.24,8.24,0,0,1-1.24-2A30.08,30.08,0,0,0,288.82,151Z"/><path class="cls-39" d="M358,313.34a1.35,1.35,0,0,1-1,.53c-1.52.05-3.15-2.15-3.85-3.26a24.45,24.45,0,0,1-2.19-4.93l-4.11-11.42c-5.1-14.2-10.59-28.32-14.92-42.78q-2.17-7.39-4.21-14.83c-4.35,4.26-7.62,10.13-10.45,15.47-9,16.88-10.46,36.07-14.86,54.42-.34,1.39-.74,6.17-2,7.08-4.9,3.53-4.19-8.86-4.24-10.81A238.41,238.41,0,0,1,298.42,264a248.5,248.5,0,0,1,6.34-30.8c2.44-8.87,5.19-18,9.57-26.09,2-3.76,16.25,4.56,20.33,6,2.88,1,7,1.49,9,4s2.09,7.65,2.72,10.91q2.74,14.22,5.19,28.48c2.64,15.34,3.42,30.88,6.51,46.17a25.87,25.87,0,0,1,.79,7.2C358.83,310.78,358.71,312.48,358,313.34Z"/><path class="cls-40" d="M326.85,233.73c.36,1.31.48,1.61.84,2.92-4.26,3.94-8.42,11.63-10.46,15.47-9,16.88-10.45,36.07-14.86,54.42-.33,1.39-.73,6.17-2,7.08-1.93,1.39-3,.31-3.57-1.63a52.87,52.87,0,0,0,1.09-5.45c4.41-18.35,5.88-37.54,14.86-54.42C315.59,246.78,322.51,238,326.85,233.73Z"/><path class="cls-41" d="M358.9,309.85a7.15,7.15,0,0,1-.9,3.49,1.38,1.38,0,0,1-1,.53c-1,0-2.06-.92-2.86-1.88a13.11,13.11,0,0,0,.31-2.14,25.4,25.4,0,0,0-.79-7.19c-3.09-15.29-3.86-30.83-6.51-46.17q-2.43-14.27-5.19-28.48c-.63-3.27-.56-8.31-2.72-10.92s-6.16-2.94-9-4-10.26-5.15-15.39-6.53c3.16-2.29,16,5.17,19.87,6.53,2.87,1,7,1.49,9,4s2.09,7.65,2.72,10.92q2.76,14.2,5.2,28.48c2.64,15.34,3.41,30.88,6.5,46.17A25.4,25.4,0,0,1,358.9,309.85Z"/><path class="cls-42" d="M349.8,190.41c0,2-.13,3.89-.28,5.84s-.34,4.11-.59,6.15a119.6,119.6,0,0,1-3.77,18.36L325.77,216l-7.7-1.89-.47-.11-6.23-1.57s4.7-21.77,6.53-30.46c1.1-5.24,2.44-10.62,5.72-14.86,2.86-3.69,10.06-8.84,15.13-7.17,3.76,1.24,6.65,6.66,8.3,11,.42,1.08.75,2.09,1,2.94.34,1.15.62,2.31.85,3.49A61.48,61.48,0,0,1,349.8,190.41Z"/><g class="cls-37"><path class="cls-43" d="M357.8,182.89a4.87,4.87,0,0,1,.55,3.47,5,5,0,0,1-2.28,2.32,93.58,93.58,0,0,1-28.59,12,3,3,0,0,1,.06-3.45,8.49,8.49,0,0,1,2.84-2.33,169.28,169.28,0,0,1,17.28-9c-2.83-5.22-3.91-9.82-6.74-15-.8-1.48,4.6-5.15,6.71-3A51,51,0,0,1,357.8,182.89Z"/><path class="cls-43" d="M349.8,190.41c0,2-.13,3.89-.28,5.84a93,93,0,0,1-21.6,8,3,3,0,0,1,.05-3.45,8.49,8.49,0,0,1,2.84-2.33,170.33,170.33,0,0,1,17.28-9c3.47-2.77-.52-9.18-3.35-14.4-.69-1.28-.12-4.84,2.31-4.22.42,1.08.75,2.09,1,2.94A54,54,0,0,1,349.8,190.41Z"/><path class="cls-43" d="M321.51,197.46c-1.12.37-2.25.63-2.7,1.69a6.85,6.85,0,0,0,.2,4.22,4.37,4.37,0,0,0,2.53,2.7c1.34.43,2.62-.5,3.73-1.24a51.39,51.39,0,0,0,4.25-3.43,4,4,0,0,0,1.27-1.42,3.45,3.45,0,0,0,.11-1.78,3.54,3.54,0,0,0-.71-1.86,1.48,1.48,0,0,0-1.75-.4,7.76,7.76,0,0,1-2.16.45A27.66,27.66,0,0,0,321.51,197.46Z"/><path class="cls-43" d="M321.3,198.79c-1.21.44-2-.62-2.57.56a9.15,9.15,0,0,0-.25,6.17,4.63,4.63,0,0,0,2.68,3c1.43.46,2.83-.63,4-1.48a58.19,58.19,0,0,0,4.67-4,4.73,4.73,0,0,0,1.39-1.63,5.15,5.15,0,0,0-.56-4.09,1.5,1.5,0,0,0-1.88-.42,8.48,8.48,0,0,1-2.35.55A30.14,30.14,0,0,0,321.3,198.79Z"/></g><path class="cls-42" d="M312.34,166.47a4.14,4.14,0,0,1-1.27.15,3.11,3.11,0,0,1-1.38-.47l-11.53-6.79-2.82-1.66c-.55-.32-1.65-1.29-2.35-1.2a.49.49,0,0,0-.3.19l-3.63,3.93a.57.57,0,0,0,.05.83q5.79,4.89,11.73,9.58c3.14,2.49,6.83,6.74,11.12,6.81,4.08.07,7.83-2.39,11.29-4.23s7.07-3,9.74-5.87c1.25-1.35,3.73-5.16,2.29-7.05-.9-1.18-2.94-.86-4.19-.66a27,27,0,0,0-5.23,1.37,74.88,74.88,0,0,0-7.56,2.83l-3.78,1.42C313.8,165.92,313.09,166.27,312.34,166.47Z"/><path class="cls-38" d="M338.79,163a2.07,2.07,0,0,0-.65.32,7.65,7.65,0,0,1-.88.34,6.37,6.37,0,0,1-1.8.26c-.9,0-3.16-.28-3.15-1.15,0-.46,0-.92,0-1.38v-4.89l6.48-1.75v4C338.79,160.15,338.73,161.58,338.79,163Z"/><path class="cls-42" d="M359.55,183.51a4.89,4.89,0,0,1,.55,3.48,5,5,0,0,1-2.28,2.31,93.85,93.85,0,0,1-28.59,12,3,3,0,0,1,.06-3.45,8.37,8.37,0,0,1,2.84-2.33,167.3,167.3,0,0,1,17.28-9l-8.49-15.67a19.39,19.39,0,0,1-2-4.61c-.78-3.25.43-5.9,3.61-3.63a51.09,51.09,0,0,1,17,20.83Z"/><path class="cls-38" d="M321.88,198.42c-1.11.37-2.24.63-2.7,1.69a6.93,6.93,0,0,0,.2,4.22,4.41,4.41,0,0,0,2.54,2.7c1.34.43,2.61-.51,3.72-1.24a51.94,51.94,0,0,0,4.26-3.43,4.07,4.07,0,0,0,1.26-1.42,3.26,3.26,0,0,0,.11-1.78,3.47,3.47,0,0,0-.7-1.86,1.49,1.49,0,0,0-1.75-.4,7.83,7.83,0,0,1-2.17.45A27.87,27.87,0,0,0,321.88,198.42Z"/><path class="cls-44" d="M298.91,308.07a4.34,4.34,0,0,0,3.77-1.76l.15,6.19a4.76,4.76,0,0,1-.19,1.77,2.94,2.94,0,0,1-2.51,1.6c-4.81.81-9.69.34-14.53-.13a1.37,1.37,0,0,1-.73-.21,1.63,1.63,0,0,1-.34-1.83,3.35,3.35,0,0,1,1.23-1.4c2.17-1.57,4.63-2.42,6.88-3.79.87-.54,1.93-1.78,2.93-1.84.58,0,1,.42,1.5.73A4.16,4.16,0,0,0,298.91,308.07Z"/><path class="cls-44" d="M355,308.07a4.34,4.34,0,0,0,3.77-1.76l.15,6.19a4.76,4.76,0,0,1-.19,1.77,3,3,0,0,1-2.52,1.6c-4.8.81-9.68.34-14.52-.13a1.43,1.43,0,0,1-.74-.21,1.62,1.62,0,0,1-.33-1.83,3.35,3.35,0,0,1,1.23-1.4c2.17-1.57,4.62-2.42,6.88-3.79.87-.54,1.93-1.78,2.93-1.84.58,0,1,.42,1.5.73A4.16,4.16,0,0,0,355,308.07Z"/><path class="cls-45" d="M340.92,153a8.71,8.71,0,0,1-8.33,4.32,7.06,7.06,0,0,1-4.47-2.16,7.46,7.46,0,0,0,2.56.74,8.52,8.52,0,0,0,7.63-13.68,6.32,6.32,0,0,0-.7-.77A8.39,8.39,0,0,1,340.92,153Z"/><path class="cls-46" d="M325.72,137.84a5.21,5.21,0,0,0,3.11,5.27,6.81,6.81,0,0,0,6.29-.62,3.41,3.41,0,0,0,3.68,4,4.14,4.14,0,0,0,1,5.55,1.76,1.76,0,0,0-.36,2.79,2.33,2.33,0,0,0,3-.15,3.54,3.54,0,0,0,.95-3.07,5.73,5.73,0,0,0,.91-11.3,5.58,5.58,0,0,0-9-5.4c.15-.12-1.34-.89-1.45-1a5.23,5.23,0,0,0-2-.55,6.71,6.71,0,0,0-3.7,1A5.39,5.39,0,0,0,326,137,4,4,0,0,0,325.72,137.84Z"/><ellipse class="cls-38" cx="339.3" cy="152.22" rx="1.6" ry="1.85"/><path class="cls-43" d="M340,177.83c-.24,1.16-.25,2.37-.44,3.54a5.47,5.47,0,0,1-1.47,3.19,2.74,2.74,0,0,1-3.28.45,3.62,3.62,0,0,1-1.23-3,45.59,45.59,0,0,1,.82-5s2.19.6,2.75.72A8.8,8.8,0,0,0,340,177.83Z"/><path class="cls-9" d="M388.21,111.15h1.91a.45.45,0,0,0,.45-.45v-4.42a.45.45,0,0,0-.45-.45h-1.91c0-.23-.11-.47-.18-.69l1.65-1a.44.44,0,0,0,.16-.61l-2.2-3.83a.46.46,0,0,0-.62-.16l-1.65,1-.51-.5h0l.95-1.65a.44.44,0,0,0-.16-.61l-3.83-2.21a.44.44,0,0,0-.61.16l-1,1.65a7,7,0,0,0-.69-.18h0V95.27a.45.45,0,0,0-.45-.45h-4.42a.45.45,0,0,0-.45.45v1.91h0q-.35.07-.69.18l-.95-1.65a.45.45,0,0,0-.62-.16l-3.82,2.21a.45.45,0,0,0-.17.61l.95,1.65h0c-.17.16-.34.33-.5.5l-1.65-1a.45.45,0,0,0-.62.16L364,103.57a.45.45,0,0,0,.17.61l1.65,1c-.07.22-.14.46-.19.69h-1.9a.46.46,0,0,0-.46.45v4.42a.46.46,0,0,0,.46.45h1.9c.05.23.12.46.19.69h0l-1.65,1a.46.46,0,0,0-.17.62l2.21,3.82a.45.45,0,0,0,.62.17l1.65-1c.16.17.33.34.5.5h0L368,118.6a.46.46,0,0,0,.17.62l3.82,2.21a.46.46,0,0,0,.62-.17l.95-1.65.69.19h0v1.9a.46.46,0,0,0,.45.46h4.42a.46.46,0,0,0,.45-.46v-1.9h0l.69-.19,1,1.65a.45.45,0,0,0,.61.17l3.83-2.21a.45.45,0,0,0,.16-.62l-.95-1.65h0l.51-.5,1.65,1a.46.46,0,0,0,.62-.17l2.2-3.82a.45.45,0,0,0-.16-.62l-1.65-1h0Q388.14,111.5,388.21,111.15Zm-10,3.67a6.46,6.46,0,1,1,5.07-5.08A6.45,6.45,0,0,1,378.17,114.82Z"/></g></g></g></svg>