<svg xmlns="http://www.w3.org/2000/svg" xmlns:xlink="http://www.w3.org/1999/xlink" viewBox="0 0 368.27 395.82"><defs><style>.cls-1,.cls-25{fill:none;}.cls-2{isolation:isolate;}.cls-3{fill:#242b3d;}.cls-4{fill:#3e4e75;}.cls-5{fill:#5d99fa;}.cls-6{fill:#b875d0;}.cls-7{fill:#f56eab;}.cls-12,.cls-154,.cls-18,.cls-8{fill:#fff;}.cls-8{opacity:0.2;}.cls-154,.cls-24,.cls-33,.cls-8{mix-blend-mode:overlay;}.cls-9{fill:#7dd075;}.cls-10{fill:#6ef5c8;}.cls-11{fill:#5e93ff;}.cls-13{fill:#8c5e4c;}.cls-14{fill:url(#linear-gradient);}.cls-15{fill:url(#linear-gradient-2);}.cls-16{fill:#eda468;}.cls-17{fill:#b57962;}.cls-18{opacity:0.3;}.cls-19{fill:#c8c8e5;}.cls-20{fill:#acacd1;}.cls-21{fill:url(#linear-gradient-3);}.cls-22{fill:#a9d1b5;mix-blend-mode:multiply;}.cls-23{clip-path:url(#clip-path);}.cls-24{opacity:0.5;}.cls-25{stroke:#fff;stroke-linejoin:round;stroke-width:0.5px;}.cls-26{fill:url(#linear-gradient-4);}.cls-27{clip-path:url(#clip-path-2);}.cls-28{fill:url(#linear-gradient-5);}.cls-29{clip-path:url(#clip-path-3);}.cls-30{fill:#614134;}.cls-31{fill:#9c6854;}.cls-32{fill:#fcbb86;}.cls-33{fill:#fffbf7;}.cls-154,.cls-33{opacity:0.4;}.cls-34{fill:#1c2229;}.cls-35{fill:url(#linear-gradient-6);}.cls-36{fill:#b0b2c9;}.cls-37{fill:#7c80a6;}.cls-38{fill:url(#linear-gradient-7);}.cls-39{fill:url(#linear-gradient-8);}.cls-40{fill:url(#linear-gradient-9);}.cls-41{fill:url(#linear-gradient-10);}.cls-42{fill:url(#linear-gradient-11);}.cls-43{fill:url(#linear-gradient-12);}.cls-44{fill:url(#linear-gradient-13);}.cls-45{fill:url(#linear-gradient-14);}.cls-46{fill:url(#linear-gradient-15);}.cls-47{fill:url(#linear-gradient-16);}.cls-48{fill:url(#linear-gradient-17);}.cls-49{fill:url(#linear-gradient-18);}.cls-50{fill:url(#linear-gradient-19);}.cls-51{fill:url(#linear-gradient-20);}.cls-52{fill:url(#linear-gradient-21);}.cls-53{fill:url(#linear-gradient-22);}.cls-54{fill:url(#linear-gradient-23);}.cls-55{fill:url(#linear-gradient-24);}.cls-56{fill:url(#linear-gradient-25);}.cls-57{fill:url(#linear-gradient-26);}.cls-58{fill:url(#linear-gradient-27);}.cls-59{fill:url(#linear-gradient-28);}.cls-60{fill:url(#linear-gradient-29);}.cls-61{fill:url(#linear-gradient-30);}.cls-62{fill:url(#linear-gradient-31);}.cls-63{fill:url(#linear-gradient-32);}.cls-64{fill:url(#linear-gradient-33);}.cls-65{fill:url(#linear-gradient-34);}.cls-66{fill:url(#linear-gradient-35);}.cls-67{fill:url(#linear-gradient-36);}.cls-68{fill:url(#linear-gradient-37);}.cls-69{fill:url(#linear-gradient-38);}.cls-70{fill:url(#linear-gradient-39);}.cls-71{fill:url(#linear-gradient-40);}.cls-72{fill:url(#linear-gradient-41);}.cls-73{fill:url(#linear-gradient-42);}.cls-74{fill:url(#linear-gradient-43);}.cls-75{fill:url(#linear-gradient-44);}.cls-76{fill:url(#linear-gradient-45);}.cls-77{fill:url(#linear-gradient-46);}.cls-78{fill:url(#linear-gradient-47);}.cls-79{fill:url(#linear-gradient-48);}.cls-80{fill:url(#linear-gradient-49);}.cls-81{fill:url(#linear-gradient-50);}.cls-82{fill:url(#linear-gradient-51);}.cls-83{fill:url(#linear-gradient-52);}.cls-84{fill:url(#linear-gradient-53);}.cls-85{fill:url(#linear-gradient-54);}.cls-86{fill:url(#linear-gradient-55);}.cls-87{fill:url(#linear-gradient-56);}.cls-88{fill:url(#linear-gradient-57);}.cls-89{fill:url(#linear-gradient-58);}.cls-90{fill:url(#linear-gradient-59);}.cls-91{fill:url(#linear-gradient-60);}.cls-92{fill:url(#linear-gradient-61);}.cls-93{fill:url(#linear-gradient-62);}.cls-94{fill:url(#linear-gradient-63);}.cls-95{fill:url(#linear-gradient-64);}.cls-96{fill:url(#linear-gradient-65);}.cls-97{fill:url(#linear-gradient-66);}.cls-98{fill:url(#linear-gradient-67);}.cls-99{fill:url(#linear-gradient-68);}.cls-100{fill:url(#linear-gradient-69);}.cls-101{fill:url(#linear-gradient-70);}.cls-102{fill:url(#linear-gradient-71);}.cls-103{fill:url(#linear-gradient-72);}.cls-104{fill:url(#linear-gradient-73);}.cls-105{fill:url(#linear-gradient-74);}.cls-106{fill:url(#linear-gradient-75);}.cls-107{fill:url(#linear-gradient-76);}.cls-108{fill:url(#linear-gradient-77);}.cls-109{fill:url(#linear-gradient-78);}.cls-110{fill:url(#linear-gradient-79);}.cls-111{fill:url(#linear-gradient-80);}.cls-112{fill:url(#linear-gradient-81);}.cls-113{fill:url(#linear-gradient-82);}.cls-114{fill:url(#linear-gradient-83);}.cls-115{fill:url(#linear-gradient-84);}.cls-116{fill:url(#linear-gradient-85);}.cls-117{fill:url(#linear-gradient-86);}.cls-118{fill:url(#linear-gradient-87);}.cls-119{fill:url(#linear-gradient-88);}.cls-120{fill:url(#linear-gradient-89);}.cls-121{fill:url(#linear-gradient-90);}.cls-122{fill:url(#linear-gradient-91);}.cls-123{fill:url(#linear-gradient-92);}.cls-124{fill:url(#linear-gradient-93);}.cls-125{fill:#c27d5d;}.cls-126{fill:#5274ab;}.cls-127{fill:#1e202b;}.cls-128{fill:#2d3041;}.cls-129{fill:#7f5545;}.cls-130{fill:#976552;}.cls-131{fill:#614135;}.cls-132,.cls-133,.cls-134,.cls-135,.cls-136,.cls-137,.cls-138,.cls-141,.cls-142,.cls-143,.cls-144{fill-rule:evenodd;}.cls-132{fill:url(#linear-gradient-94);}.cls-133{fill:url(#linear-gradient-95);}.cls-134{fill:url(#linear-gradient-96);}.cls-135{fill:#fdddc8;}.cls-136{fill:url(#linear-gradient-97);}.cls-137{fill:url(#linear-gradient-98);}.cls-138{fill:url(#linear-gradient-99);}.cls-139{fill:#27569b;}.cls-140{fill:#1e497c;}.cls-141{fill:url(#linear-gradient-100);}.cls-142{fill:#cf8f5b;}.cls-143{fill:#7d4a41;}.cls-144{fill:#d9c8c5;}.cls-145{fill:#7495cc;}.cls-146{fill:#6f4d50;}.cls-147{fill:url(#linear-gradient-101);}.cls-148{fill:url(#linear-gradient-102);}.cls-149{fill:url(#linear-gradient-103);}.cls-150{fill:url(#linear-gradient-104);}.cls-151{fill:#363e4f;}.cls-152{fill:url(#linear-gradient-105);}.cls-153{fill:url(#linear-gradient-106);}.cls-155{fill:url(#linear-gradient-107);}.cls-156{fill:url(#linear-gradient-108);}.cls-157{fill:url(#linear-gradient-109);}.cls-158{fill:url(#linear-gradient-110);}.cls-159{clip-path:url(#clip-path-4);}.cls-160{fill:url(#linear-gradient-111);}.cls-161{clip-path:url(#clip-path-5);}.cls-162{fill:url(#linear-gradient-112);}.cls-163{clip-path:url(#clip-path-6);}.cls-164{fill:#424b60;}.cls-165{fill:#8194bc;}.cls-166{fill:#ffcc0c;}.cls-167{fill:#ffc003;}.cls-168{fill:#e8356c;}.cls-169{fill:#3aa6ff;}</style><linearGradient id="linear-gradient" x1="73.73" y1="245.46" x2="104.23" y2="193.62" gradientUnits="userSpaceOnUse"><stop offset="0" stop-color="#f7f7ff"/><stop offset="1" stop-color="#bebee0"/></linearGradient><linearGradient id="linear-gradient-2" x1="101.58" y1="258.13" x2="137.41" y2="176.29" xlink:href="#linear-gradient"/><linearGradient id="linear-gradient-3" x1="364.7" y1="703.69" x2="378.43" y2="649.29" gradientTransform="matrix(-0.98, -0.21, -0.21, 0.98, 604.75, -432.66)" gradientUnits="userSpaceOnUse"><stop offset="0" stop-color="#346d4d"/><stop offset="1" stop-color="#8ac45e"/></linearGradient><clipPath id="clip-path"><path class="cls-1" d="M103.94,197.49c2.76-5.61,7.45-4.78,9.34-10.82,1.6-6.1-2.76-6.57-1.58-12.51.89-6,4.86-5.86,4.84-12-.31-6.17-3.85-6-4.49-12-.92-5.91,2.15-6.32.29-12.22-2.13-5.82-4.7-5.26-7.1-10.77-2.66-5.42-.63-6.11-4.25-11.29-3.89-5-7.36-6.35-11.46-11-2.49,5.7-5.4,8-7.57,14-1.87,6,.27,6.07-.62,12-.61,6-3.23,6.22-3.49,12.41,0,6.19,3.07,5.65,4,11.55,1.19,5.86-2.23,6.79-.65,12.76,1.86,5.91,5.61,4.6,8.28,10,2.92,5.31-1.09,7.08,2.29,12.4C95.4,195.2,99.61,193,103.94,197.49Z"/></clipPath><linearGradient id="linear-gradient-4" x1="-815.59" y1="103.41" x2="-803.53" y2="55.61" gradientTransform="matrix(-0.9, 0.44, 0.44, 0.9, -691.14, 455.77)" xlink:href="#linear-gradient-3"/><clipPath id="clip-path-2"><path class="cls-1" d="M101.85,199.7c-1.17-5.37,2.51-7.36.5-12.55-2.24-5.06-5.49-3-7.93-7.73-2.66-4.59.13-6.69-3.27-10.93-3.59-4.08-5.94-2-9.63-5.76-3.86-3.56-2-5.52-6.49-8.56-4.65-2.83-6.11-1-10.78-3.52-4.8-2.26-3.77-3.85-9.1-5.43-5.42-1.34-8.53-.34-13.91-1.31,1.41,5.28.67,8.46,2.45,13.76,2,5.17,3.52,4,6.17,8.62,2.86,4.45,1.19,6.05,4.4,10.45,3.4,4.24,5.2,2.2,9.06,5.75,4,3.37,2.18,5.89,6.54,9.12,4.51,3,6.37.09,11.17,2.35,4.91,2,3.12,5.47,8.36,7.27C94.73,202.8,96.41,199,101.85,199.7Z"/></clipPath><linearGradient id="linear-gradient-5" x1="1068.17" y1="3920.34" x2="1080.23" y2="3872.54" gradientTransform="matrix(-0.5, -0.86, -0.86, 0.5, 4041.06, -868.1)" xlink:href="#linear-gradient-3"/><clipPath id="clip-path-3"><path class="cls-1" d="M105.86,197.31c5.27-1.54,7.51,2,12.55-.38,4.9-2.59,2.61-5.69,7.16-8.46,4.39-3,6.68-.34,10.67-4,3.82-3.86,1.61-6.06,5.07-10,3.28-4.1,5.37-2.36,8.08-7.07,2.5-4.84.61-6.17,2.76-11,1.92-4.94,3.58-4,4.78-9.46.95-5.5-.26-8.54.32-14-5.17,1.78-8.39,1.27-13.55,3.42-5,2.37-3.77,3.78-8.16,6.75-4.24,3.16-5.95,1.61-10.12,5.12-4,3.69-1.83,5.35-5.1,9.45-3.08,4.25-5.72,2.58-8.64,7.16-2.72,4.71.36,6.36-1.56,11.3-1.7,5.05-5.23,3.51-6.67,8.85C102.26,190.42,106.2,191.83,105.86,197.31Z"/></clipPath><linearGradient id="linear-gradient-6" x1="157.75" y1="122.68" x2="175.42" y2="198.85" gradientUnits="userSpaceOnUse"><stop offset="0" stop-color="#405078"/><stop offset="1" stop-color="#252e45"/></linearGradient><linearGradient id="linear-gradient-7" x1="188.98" y1="182.67" x2="228.29" y2="151.29" gradientTransform="translate(-59.02)" gradientUnits="userSpaceOnUse"><stop offset="0" stop-color="#fff"/><stop offset="1" stop-color="#cecfdb"/></linearGradient><linearGradient id="linear-gradient-8" x1="180.98" y1="152.01" x2="235" y2="181.2" gradientTransform="translate(-59.02)" gradientUnits="userSpaceOnUse"><stop offset="0" stop-color="#333e4a"/><stop offset="1" stop-color="#222931"/></linearGradient><linearGradient id="linear-gradient-9" x1="183.52" y1="147.32" x2="237.54" y2="176.51" xlink:href="#linear-gradient-8"/><linearGradient id="linear-gradient-10" x1="183.47" y1="147.4" x2="237.5" y2="176.6" xlink:href="#linear-gradient-8"/><linearGradient id="linear-gradient-11" x1="183.42" y1="147.47" x2="237.45" y2="176.68" xlink:href="#linear-gradient-8"/><linearGradient id="linear-gradient-12" x1="182.4" y1="149.37" x2="236.43" y2="178.57" xlink:href="#linear-gradient-8"/><linearGradient id="linear-gradient-13" x1="182.36" y1="149.45" x2="236.39" y2="178.65" xlink:href="#linear-gradient-8"/><linearGradient id="linear-gradient-14" x1="183.38" y1="147.56" x2="237.41" y2="176.76" xlink:href="#linear-gradient-8"/><linearGradient id="linear-gradient-15" x1="181.07" y1="151.85" x2="235.09" y2="181.04" xlink:href="#linear-gradient-8"/><linearGradient id="linear-gradient-16" x1="179.77" y1="154.24" x2="233.8" y2="183.44" xlink:href="#linear-gradient-8"/><linearGradient id="linear-gradient-17" x1="182.32" y1="149.53" x2="236.34" y2="178.73" xlink:href="#linear-gradient-8"/><linearGradient id="linear-gradient-18" x1="183.34" y1="147.64" x2="237.36" y2="176.84" xlink:href="#linear-gradient-8"/><linearGradient id="linear-gradient-19" x1="181.02" y1="151.93" x2="235.05" y2="181.12" xlink:href="#linear-gradient-8"/><linearGradient id="linear-gradient-20" x1="179.73" y1="154.32" x2="233.75" y2="183.52" xlink:href="#linear-gradient-8"/><linearGradient id="linear-gradient-21" x1="183.3" y1="147.73" x2="237.32" y2="176.92" xlink:href="#linear-gradient-8"/><linearGradient id="linear-gradient-22" x1="178.45" y1="156.68" x2="232.48" y2="185.88" xlink:href="#linear-gradient-8"/><linearGradient id="linear-gradient-23" x1="179.68" y1="154.4" x2="233.71" y2="183.6" xlink:href="#linear-gradient-8"/><linearGradient id="linear-gradient-24" x1="182.25" y1="149.65" x2="236.28" y2="178.85" xlink:href="#linear-gradient-8"/><linearGradient id="linear-gradient-25" x1="178.41" y1="156.77" x2="232.43" y2="185.96" xlink:href="#linear-gradient-8"/><linearGradient id="linear-gradient-26" x1="183.25" y1="147.81" x2="237.27" y2="177" xlink:href="#linear-gradient-8"/><linearGradient id="linear-gradient-27" x1="180.92" y1="152.12" x2="234.95" y2="181.32" xlink:href="#linear-gradient-8"/><linearGradient id="linear-gradient-28" x1="182.17" y1="149.77" x2="236.21" y2="178.97" xlink:href="#linear-gradient-8"/><linearGradient id="linear-gradient-29" x1="178.35" y1="156.89" x2="232.37" y2="186.08" xlink:href="#linear-gradient-8"/><linearGradient id="linear-gradient-30" x1="179.61" y1="154.54" x2="233.63" y2="183.74" xlink:href="#linear-gradient-8"/><linearGradient id="linear-gradient-31" x1="180.85" y1="152.23" x2="234.88" y2="181.43" xlink:href="#linear-gradient-8"/><linearGradient id="linear-gradient-32" x1="177.01" y1="159.35" x2="231.04" y2="188.54" xlink:href="#linear-gradient-8"/><linearGradient id="linear-gradient-33" x1="178.28" y1="157.01" x2="232.3" y2="186.2" xlink:href="#linear-gradient-8"/><linearGradient id="linear-gradient-34" x1="179.54" y1="154.69" x2="233.56" y2="183.88" xlink:href="#linear-gradient-8"/><linearGradient id="linear-gradient-35" x1="178.23" y1="157.09" x2="232.26" y2="186.29" xlink:href="#linear-gradient-8"/><linearGradient id="linear-gradient-36" x1="176.93" y1="159.52" x2="230.95" y2="188.71" xlink:href="#linear-gradient-8"/><linearGradient id="linear-gradient-37" x1="176.97" y1="159.43" x2="230.99" y2="188.63" xlink:href="#linear-gradient-8"/><linearGradient id="linear-gradient-38" x1="177.06" y1="159.27" x2="231.08" y2="188.46" xlink:href="#linear-gradient-8"/><linearGradient id="linear-gradient-39" x1="177.11" y1="159.2" x2="231.12" y2="188.39" xlink:href="#linear-gradient-8"/><linearGradient id="linear-gradient-40" x1="179.94" y1="153.93" x2="233.97" y2="183.12" xlink:href="#linear-gradient-8"/><linearGradient id="linear-gradient-41" x1="178.8" y1="156.04" x2="232.82" y2="185.24" xlink:href="#linear-gradient-8"/><linearGradient id="linear-gradient-42" x1="180.18" y1="153.5" x2="234.2" y2="182.69" xlink:href="#linear-gradient-8"/><linearGradient id="linear-gradient-43" x1="181.51" y1="151.03" x2="235.53" y2="180.22" xlink:href="#linear-gradient-8"/><linearGradient id="linear-gradient-44" x1="177.58" y1="158.31" x2="231.6" y2="187.5" xlink:href="#linear-gradient-8"/><linearGradient id="linear-gradient-45" x1="183.86" y1="146.68" x2="237.89" y2="175.88" xlink:href="#linear-gradient-8"/><linearGradient id="linear-gradient-46" x1="182.8" y1="148.65" x2="236.82" y2="177.84" xlink:href="#linear-gradient-8"/><linearGradient id="linear-gradient-47" x1="181.45" y1="151.13" x2="235.49" y2="180.33" xlink:href="#linear-gradient-8"/><linearGradient id="linear-gradient-48" x1="183.82" y1="146.76" x2="237.84" y2="175.96" xlink:href="#linear-gradient-8"/><linearGradient id="linear-gradient-49" x1="183.77" y1="146.84" x2="237.8" y2="176.03" xlink:href="#linear-gradient-8"/><linearGradient id="linear-gradient-50" x1="183.73" y1="146.92" x2="237.75" y2="176.11" xlink:href="#linear-gradient-8"/><linearGradient id="linear-gradient-51" x1="183.68" y1="147" x2="237.71" y2="176.2" xlink:href="#linear-gradient-8"/><linearGradient id="linear-gradient-52" x1="182.62" y1="148.97" x2="236.65" y2="178.17" xlink:href="#linear-gradient-8"/><linearGradient id="linear-gradient-53" x1="182.66" y1="148.89" x2="236.69" y2="178.09" xlink:href="#linear-gradient-8"/><linearGradient id="linear-gradient-54" x1="182.71" y1="148.81" x2="236.73" y2="178" xlink:href="#linear-gradient-8"/><linearGradient id="linear-gradient-55" x1="182.75" y1="148.73" x2="236.78" y2="177.93" xlink:href="#linear-gradient-8"/><linearGradient id="linear-gradient-56" x1="181.41" y1="151.21" x2="235.44" y2="180.4" xlink:href="#linear-gradient-8"/><linearGradient id="linear-gradient-57" x1="180.12" y1="153.6" x2="234.14" y2="182.8" xlink:href="#linear-gradient-8"/><linearGradient id="linear-gradient-58" x1="178.87" y1="155.92" x2="232.89" y2="185.11" xlink:href="#linear-gradient-8"/><linearGradient id="linear-gradient-59" x1="180.07" y1="153.68" x2="234.1" y2="182.89" xlink:href="#linear-gradient-8"/><linearGradient id="linear-gradient-60" x1="181.11" y1="151.77" x2="235.13" y2="180.96" xlink:href="#linear-gradient-8"/><linearGradient id="linear-gradient-61" x1="183.65" y1="147.08" x2="237.66" y2="176.28" xlink:href="#linear-gradient-8"/><linearGradient id="linear-gradient-62" x1="183.6" y1="147.16" x2="237.62" y2="176.36" xlink:href="#linear-gradient-8"/><linearGradient id="linear-gradient-63" x1="182.53" y1="149.13" x2="236.56" y2="178.33" xlink:href="#linear-gradient-8"/><linearGradient id="linear-gradient-64" x1="181.19" y1="151.61" x2="235.22" y2="180.81" xlink:href="#linear-gradient-8"/><linearGradient id="linear-gradient-65" x1="183.56" y1="147.24" x2="237.58" y2="176.43" xlink:href="#linear-gradient-8"/><linearGradient id="linear-gradient-66" x1="182.49" y1="149.21" x2="236.52" y2="178.41" xlink:href="#linear-gradient-8"/><linearGradient id="linear-gradient-67" x1="181.15" y1="151.69" x2="235.18" y2="180.88" xlink:href="#linear-gradient-8"/><linearGradient id="linear-gradient-68" x1="181.37" y1="151.29" x2="235.4" y2="180.48" xlink:href="#linear-gradient-8"/><linearGradient id="linear-gradient-69" x1="181.33" y1="151.37" x2="235.35" y2="180.56" xlink:href="#linear-gradient-8"/><linearGradient id="linear-gradient-70" x1="180.03" y1="153.77" x2="234.06" y2="182.96" xlink:href="#linear-gradient-8"/><linearGradient id="linear-gradient-71" x1="182.57" y1="149.05" x2="236.61" y2="178.25" xlink:href="#linear-gradient-8"/><linearGradient id="linear-gradient-72" x1="178.76" y1="156.13" x2="232.78" y2="185.32" xlink:href="#linear-gradient-8"/><linearGradient id="linear-gradient-73" x1="181.28" y1="151.45" x2="235.31" y2="180.65" xlink:href="#linear-gradient-8"/><linearGradient id="linear-gradient-74" x1="179.99" y1="153.85" x2="234.01" y2="183.04" xlink:href="#linear-gradient-8"/><linearGradient id="linear-gradient-75" x1="178.71" y1="156.21" x2="232.74" y2="185.4" xlink:href="#linear-gradient-8"/><linearGradient id="linear-gradient-76" x1="177.44" y1="158.56" x2="231.46" y2="187.76" xlink:href="#linear-gradient-8"/><linearGradient id="linear-gradient-77" x1="181.23" y1="151.53" x2="235.27" y2="180.73" xlink:href="#linear-gradient-8"/><linearGradient id="linear-gradient-78" x1="178.67" y1="156.29" x2="232.69" y2="185.48" xlink:href="#linear-gradient-8"/><linearGradient id="linear-gradient-79" x1="177.39" y1="158.64" x2="231.42" y2="187.84" xlink:href="#linear-gradient-8"/><linearGradient id="linear-gradient-80" x1="179.9" y1="154.01" x2="233.93" y2="183.21" xlink:href="#linear-gradient-8"/><linearGradient id="linear-gradient-81" x1="178.62" y1="156.37" x2="232.65" y2="185.56" xlink:href="#linear-gradient-8"/><linearGradient id="linear-gradient-82" x1="179.86" y1="154.09" x2="233.88" y2="183.28" xlink:href="#linear-gradient-8"/><linearGradient id="linear-gradient-83" x1="178.58" y1="156.45" x2="232.6" y2="185.64" xlink:href="#linear-gradient-8"/><linearGradient id="linear-gradient-84" x1="179.81" y1="154.17" x2="233.84" y2="183.36" xlink:href="#linear-gradient-8"/><linearGradient id="linear-gradient-85" x1="178.53" y1="156.53" x2="232.56" y2="185.73" xlink:href="#linear-gradient-8"/><linearGradient id="linear-gradient-86" x1="178.5" y1="156.61" x2="232.52" y2="185.8" xlink:href="#linear-gradient-8"/><linearGradient id="linear-gradient-87" x1="177.25" y1="158.92" x2="231.27" y2="188.11" xlink:href="#linear-gradient-8"/><linearGradient id="linear-gradient-88" x1="177.52" y1="158.4" x2="231.55" y2="187.6" xlink:href="#linear-gradient-8"/><linearGradient id="linear-gradient-89" x1="177.48" y1="158.48" x2="231.51" y2="187.68" xlink:href="#linear-gradient-8"/><linearGradient id="linear-gradient-90" x1="183.91" y1="146.59" x2="237.93" y2="175.79" xlink:href="#linear-gradient-8"/><linearGradient id="linear-gradient-91" x1="182.84" y1="148.56" x2="236.88" y2="177.77" xlink:href="#linear-gradient-8"/><linearGradient id="linear-gradient-92" x1="182.45" y1="149.29" x2="236.47" y2="178.48" xlink:href="#linear-gradient-8"/><linearGradient id="linear-gradient-93" x1="174.8" y1="155.74" x2="204.23" y2="185.47" xlink:href="#linear-gradient-7"/><linearGradient id="linear-gradient-94" x1="4366.42" y1="159.98" x2="4365.66" y2="162.42" gradientTransform="matrix(-1, 0, 0, 1, 4489.15, 0)" gradientUnits="userSpaceOnUse"><stop offset="0" stop-color="#fdddc8"/><stop offset="1" stop-color="#f8b4a8"/></linearGradient><linearGradient id="linear-gradient-95" x1="4363.9" y1="161.01" x2="4362.71" y2="165.34" xlink:href="#linear-gradient-94"/><linearGradient id="linear-gradient-96" x1="4362.04" y1="161.96" x2="4360.14" y2="167.23" xlink:href="#linear-gradient-94"/><linearGradient id="linear-gradient-97" x1="4407.33" y1="177.94" x2="4421.09" y2="176" gradientTransform="matrix(-1, 0, 0, 1, 4489.15, 0)" gradientUnits="userSpaceOnUse"><stop offset="0" stop-color="#fbd1be"/><stop offset="1" stop-color="#f8b4a8"/></linearGradient><linearGradient id="linear-gradient-98" x1="4363.79" y1="170.34" x2="4369.41" y2="169.54" xlink:href="#linear-gradient-97"/><linearGradient id="linear-gradient-99" x1="4403.91" y1="160.49" x2="4428.08" y2="145.05" xlink:href="#linear-gradient-97"/><linearGradient id="linear-gradient-100" x1="4342.33" y1="180.75" x2="4347.23" y2="180.06" xlink:href="#linear-gradient-97"/><linearGradient id="linear-gradient-101" x1="204.75" y1="204.76" x2="190.9" y2="205.96" xlink:href="#linear-gradient"/><linearGradient id="linear-gradient-102" x1="203.79" y1="193.74" x2="189.95" y2="194.94" xlink:href="#linear-gradient"/><linearGradient id="linear-gradient-103" x1="189.53" y1="188.25" x2="206.91" y2="188.25" gradientUnits="userSpaceOnUse"><stop offset="0" stop-color="#475269"/><stop offset="1" stop-color="#363e4f"/></linearGradient><linearGradient id="linear-gradient-104" x1="199.7" y1="185.31" x2="193.92" y2="190.32" xlink:href="#linear-gradient-103"/><linearGradient id="linear-gradient-105" x1="202.35" y1="185.17" x2="198.02" y2="186.66" xlink:href="#linear-gradient-103"/><linearGradient id="linear-gradient-106" x1="204.08" y1="185.49" x2="195.55" y2="189.31" xlink:href="#linear-gradient-103"/><linearGradient id="linear-gradient-107" x1="189.53" y1="192.32" x2="206.91" y2="192.32" xlink:href="#linear-gradient-103"/><linearGradient id="linear-gradient-108" x1="254.43" y1="346.78" x2="284.93" y2="294.94" xlink:href="#linear-gradient"/><linearGradient id="linear-gradient-109" x1="282.28" y1="359.45" x2="318.12" y2="277.61" xlink:href="#linear-gradient"/><linearGradient id="linear-gradient-110" x1="166.52" y1="764.01" x2="180.24" y2="709.61" xlink:href="#linear-gradient-3"/><clipPath id="clip-path-4"><path class="cls-1" d="M284.65,298.81c2.76-5.61,7.44-4.78,9.34-10.82,1.6-6.1-2.76-6.56-1.59-12.51.89-6,4.87-5.86,4.85-12.05-.31-6.17-3.85-6-4.49-12-.92-5.91,2.15-6.32.29-12.22-2.13-5.82-4.7-5.26-7.1-10.78-2.67-5.41-.64-6.1-4.26-11.28-3.88-5-7.35-6.35-11.45-11-2.49,5.7-5.4,8-7.57,14-1.88,6,.27,6.07-.63,12-.61,6-3.22,6.23-3.49,12.42,0,6.19,3.08,5.65,4,11.55,1.19,5.86-2.24,6.79-.65,12.76,1.86,5.9,5.61,4.59,8.27,10,2.93,5.31-1.08,7.08,2.29,12.4C276.1,296.52,280.31,294.3,284.65,298.81Z"/></clipPath><linearGradient id="linear-gradient-111" x1="-933.06" y1="274.06" x2="-920.99" y2="226.26" gradientTransform="matrix(-0.9, 0.44, 0.44, 0.9, -691.14, 455.77)" xlink:href="#linear-gradient-3"/><clipPath id="clip-path-5"><path class="cls-1" d="M282.56,301c-1.17-5.37,2.5-7.36.5-12.55-2.24-5.07-5.49-3-7.94-7.73-2.65-4.59.14-6.69-3.26-10.94-3.6-4.07-5.94-2-9.64-5.76-3.86-3.55-2-5.51-6.49-8.55-4.64-2.84-6.1-1-10.77-3.52-4.8-2.27-3.78-3.85-9.1-5.43-5.43-1.34-8.54-.34-13.91-1.31,1.41,5.28.67,8.46,2.45,13.76,2,5.17,3.51,4,6.17,8.62,2.85,4.45,1.19,6.05,4.39,10.45,3.41,4.24,5.21,2.2,9.07,5.75,4,3.37,2.18,5.88,6.54,9.12,4.51,3,6.37.09,11.16,2.35,4.92,2.05,3.13,5.46,8.36,7.27C275.43,304.12,277.11,300.29,282.56,301Z"/></clipPath><linearGradient id="linear-gradient-112" x1="889.68" y1="3815.14" x2="901.75" y2="3767.34" gradientTransform="matrix(-0.5, -0.86, -0.86, 0.5, 4041.06, -868.1)" xlink:href="#linear-gradient-3"/><clipPath id="clip-path-6"><path class="cls-1" d="M286.56,298.63c5.28-1.54,7.52,2,12.56-.38,4.89-2.59,2.61-5.69,7.15-8.46,4.39-3,6.69-.34,10.68-4,3.81-3.87,1.6-6.06,5.07-10,3.27-4.1,5.36-2.36,8.08-7.07,2.5-4.84.61-6.17,2.75-11,1.92-4.94,3.58-4,4.78-9.46.95-5.5-.26-8.54.33-14-5.17,1.78-8.39,1.27-13.55,3.41-5,2.38-3.77,3.79-8.17,6.76-4.24,3.16-5.95,1.61-10.11,5.12-4,3.69-1.83,5.35-5.11,9.45-3.08,4.25-5.71,2.58-8.64,7.16-2.71,4.71.36,6.36-1.56,11.3-1.69,5.05-5.23,3.5-6.66,8.85C283,291.74,286.9,293.15,286.56,298.63Z"/></clipPath></defs><title>Asset 4</title><g class="cls-2"><g id="Layer_2" data-name="Layer 2"><g id="OBJECTS"><path class="cls-3" d="M208.86,64.11A4.14,4.14,0,0,1,210.63,68l-9.53,70c-.2,1.44-1.31,2.06-2.49,1.38L91.32,77.42a4.09,4.09,0,0,1-1.77-3.84l9.53-70c.2-1.44,1.31-2.07,2.48-1.39l4.36,2.51,1.17-3.49a1.83,1.83,0,0,1,2.83-.85l31.13,18a4.89,4.89,0,0,1,2.21,3.75l.12,4.24Z"/><path class="cls-4" d="M168.75,89.12c.92,3.87,3.23,7.43,6.28,9.15s5.89,1.14,7.79-1l4,5.54c-3.08,3.66-7.89,4.59-12.8,1.83s-8.85-8.76-10.28-15.16Z"/><path class="cls-5" d="M179.64,71.77c5.64,3.38,9.68,10.68,10.41,18L184.88,89c-.49-4.41-2.9-8.75-6.25-10.83Z"/><path class="cls-6" d="M190.13,90.79a22.08,22.08,0,0,1-.21,4.75,15.11,15.11,0,0,1-2.63,6.66l-4-5.55a9.35,9.35,0,0,0,1.53-4,13.77,13.77,0,0,0,.14-2.73Z"/><path class="cls-7" d="M178.91,71.36l-1,6.35c-4.38-2.2-8.56.3-9.43,5.77a14.25,14.25,0,0,0,.07,4.65l-5,.34a23.36,23.36,0,0,1-.18-7.86C164.8,71.64,171.71,67.58,178.91,71.36Z"/><polygon class="cls-5" points="154 58.74 154.2 58.88 154.15 59.1 145.15 62.66 141.85 62.88 141.54 62.9 136.5 63.23 128.82 56.15 121.25 59.81 121.02 59.92 119.79 60.51 117.52 60.15 117.12 60.08 111.36 59.11 111.25 59.02 104.11 47.88 104.11 47.62 104.3 47.68 111.39 58.76 117.39 59.77 117.79 59.84 119.66 60.15 120.9 59.55 121.13 59.44 128.73 55.77 128.86 55.8 136.47 62.86 141.29 62.55 141.6 62.52 145.02 62.3 154 58.74"/><polygon class="cls-7" points="135.05 74.47 141.86 80.24 142.25 80.96 135.01 74.81 126.31 76.39 126.14 76.24 123.89 69.07 124.14 69.02 126.33 76.01 134.95 74.44 135.05 74.47"/><polygon class="cls-6" points="137.38 56.4 141.6 62.52 141.29 62.55 137.24 56.67 129.01 54.84 120.4 55.37 120.25 55.25 113.47 41.83 105.12 40.91 104.96 40.71 105.07 40.54 113.49 41.47 113.62 41.58 120.41 54.99 128.93 54.46 137.27 56.31 137.38 56.4"/><polygon class="cls-7" points="113.89 63.91 117.12 60.08 117.52 60.15 114.11 64.19 113.89 63.91"/><polygon class="cls-7" points="120.28 56.73 121.13 59.44 120.9 59.55 120.13 57.07 117.79 59.83 117.39 59.77 120.06 56.61 120.18 56.58 120.28 56.73"/><polygon class="cls-7" points="121.25 59.81 124.02 68.66 123.78 68.71 121.02 59.92 121.25 59.81"/><polygon class="cls-7" points="110.1 68.38 113.71 64.12 113.93 64.41 110.23 68.79 110.03 68.75 102.76 58.66 102.74 58.4 102.93 58.43 110.1 68.38"/><polygon class="cls-6" points="153.59 62.05 153.77 62.17 153.74 62.41 144.59 67.15 144.43 67.09 141.54 62.9 141.85 62.88 144.52 66.77 153.59 62.05"/><polygon class="cls-4" points="135.7 68.71 135.82 68.81 142.42 80.72 142.75 81.33 142.86 81.37 150.86 84.33 151 84.56 150.86 84.68 142.69 81.67 142.59 81.57 142.25 80.96 141.86 80.24 135.68 69.07 127.31 68.38 124.14 69.02 123.89 69.07 118.55 70.15 118.41 70.08 113.93 64.41 113.71 64.12 111.06 60.77 103.41 53.8 103.34 53.54 103.52 53.52 111.18 60.49 113.89 63.91 114.11 64.19 118.51 69.78 123.78 68.71 124.02 68.66 127.21 68.01 135.7 68.71"/><polygon class="cls-7" points="151.14 81.9 151.29 82.09 151.19 82.27 142.86 81.37 142.75 81.33 142.42 80.72 142.74 81 151.14 81.9"/><polygon class="cls-4" points="105.83 28.45 100.78 68.52 149.42 95.87 149.38 96.21 100.46 68.71 105.55 28.29 105.83 28.45"/><path class="cls-4" d="M139.27,22.64a.34.34,0,0,0,.35,0l.38-.21.27.59a.86.86,0,0,0,.31.36.36.36,0,0,0,.36,0,.64.64,0,0,0,.11-.81l-.28-.6.39-.2a.65.65,0,0,0,.11-.81.83.83,0,0,0-.31-.37.39.39,0,0,0-.36,0l-.38.22-.27-.6a.86.86,0,0,0-.31-.36.37.37,0,0,0-.35,0,.64.64,0,0,0-.11.81l.28.59-.39.22a.64.64,0,0,0-.11.81A.86.86,0,0,0,139.27,22.64Z"/><path class="cls-4" d="M192.86,60.76,105,10c-1.18-.68-2.29-.06-2.48,1.38L102,15.2a4.09,4.09,0,0,0,1.77,3.85l87.9,50.75c1.17.68,2.29,0,2.48-1.39l.52-3.81A4.09,4.09,0,0,0,192.86,60.76Z"/><path class="cls-4" d="M205.37,69.31l-6.09-3.51c-.3-.18-.6,0-.65.36a1.08,1.08,0,0,0,.46,1l6.1,3.51c.31.18.6,0,.65-.36A1.08,1.08,0,0,0,205.37,69.31Z"/><path class="cls-4" d="M204.67,74.51,198.58,71a.42.42,0,0,0-.66.36,1.09,1.09,0,0,0,.47,1l6.09,3.52c.31.18.6,0,.65-.37A1,1,0,0,0,204.67,74.51Z"/><path class="cls-4" d="M205,71.91l-6.09-3.52c-.31-.18-.61,0-.66.37a1.07,1.07,0,0,0,.47,1l6.09,3.52c.31.18.61,0,.66-.37A1.09,1.09,0,0,0,205,71.91Z"/><path class="cls-8" d="M143.38,26.31l-.12-4.24a4.89,4.89,0,0,0-2.21-3.75L109.92.34a1.83,1.83,0,0,0-2.83.85l-1.17,3.49-4.36-2.51c-1.17-.68-2.28,0-2.48,1.39l-9.53,70a4.09,4.09,0,0,0,1.77,3.84l29.28,16.9,65.08-43.59Z"/><path class="cls-3" d="M328.4,132.45a4.1,4.1,0,0,1,1.77,3.85l-9.53,70c-.19,1.44-1.3,2.06-2.48,1.38L210.87,145.76a4.09,4.09,0,0,1-1.77-3.84l9.53-70c.19-1.45,1.3-2.07,2.48-1.39L225.46,73l1.18-3.5a1.82,1.82,0,0,1,2.82-.84l31.14,18a4.88,4.88,0,0,1,2.2,3.75l.12,4.24Z"/><path class="cls-4" d="M232.29,100.82a13.71,13.71,0,0,1,5.4,6.79l-1.6.6a10.63,10.63,0,0,0-4.1-5.16Z"/><path class="cls-7" d="M232.06,100.68l-.3,2.24c-3.27-1.81-6.34-.06-6.89,4s1.68,8.92,5,10.84,6.44.15,7-3.92a11.12,11.12,0,0,0-.67-5.29l1.61-.59a14.69,14.69,0,0,1,.88,6.93c-.73,5.31-4.81,7.58-9.13,5.09s-7.23-8.81-6.51-14.11S227.79,98.3,232.06,100.68Z"/><path class="cls-9" d="M228.47,127.07l-.3,2.24c-3.28-1.81-6.34-.06-6.89,4s1.68,8.93,5,10.84a4.69,4.69,0,0,0,4,.54l.93,2.39a6.08,6.08,0,0,1-5.22-.7c-4.31-2.49-7.23-8.81-6.51-14.12S224.19,124.69,228.47,127.07Z"/><path class="cls-4" d="M228.7,127.2c4.26,2.55,7.11,8.8,6.39,14-.39,2.91-1.8,4.9-3.7,5.71l-.93-2.39c1.45-.62,2.51-2.15,2.81-4.37.55-4-1.63-8.8-4.87-10.76Z"/><path class="cls-4" d="M248,138.35c3,1.8,5.33,5.49,6.16,9.34H252.4a11.25,11.25,0,0,0-4.7-7.1Z"/><path class="cls-6" d="M247.77,138.22l-.3,2.23c-3.27-1.8-6.34,0-6.88,4s1.67,8.92,5,10.84,6.45.16,7-3.91a10.18,10.18,0,0,0-.12-3.34h1.77a13.56,13.56,0,0,1,.17,4.39c-.72,5.3-4.81,7.58-9.13,5.09s-7.23-8.81-6.51-14.12S243.5,135.84,247.77,138.22Z"/><path class="cls-5" d="M251.36,111.83l-.3,2.23c-3.27-1.81-6.34,0-6.88,4s1.67,8.93,5,10.84c2.39,1.38,4.68.86,6-1.06l1.52,1.88c-1.69,2.52-4.69,3.21-7.81,1.41-4.31-2.5-7.23-8.81-6.5-14.12S247.09,109.45,251.36,111.83Z"/><path class="cls-4" d="M251.6,112c4.25,2.54,7.11,8.8,6.39,14.05a8.57,8.57,0,0,1-1.19,3.48l-1.52-1.89a6.75,6.75,0,0,0,.89-2.64c.55-4-1.63-8.81-4.87-10.76Z"/><polygon class="cls-7" points="313.11 146.43 312.9 147.84 320.87 152.44 321.07 151.03 313.11 146.43"/><polygon class="cls-7" points="310.88 161.66 310.67 163.07 318.64 167.66 318.84 166.26 310.88 161.66"/><polygon class="cls-7" points="298.39 170.44 298.18 171.84 306.15 176.44 306.36 175.04 298.39 170.44"/><polygon class="cls-10" points="277.92 126.12 277.72 127.53 285.68 132.12 285.89 130.72 277.92 126.12"/><polygon class="cls-11" points="271.49 122.4 271.28 123.81 276.03 126.55 276.24 125.14 271.49 122.4"/><polygon class="cls-12" points="282.52 139.78 282.31 141.19 309.05 156.63 309.26 155.22 282.52 139.78"/><polygon class="cls-10" points="286.94 136.83 286.73 138.24 294.7 142.84 294.9 141.43 286.94 136.83"/><polygon class="cls-12" points="296.57 142.39 296.36 143.8 309.8 151.55 310 150.15 296.57 142.39"/><polygon class="cls-12" points="287.55 131.68 287.35 133.08 310.54 146.47 310.75 145.07 287.55 131.68"/><polygon class="cls-10" points="272.89 134.22 272.69 135.63 280.65 140.23 280.86 138.82 272.89 134.22"/><polygon class="cls-11" points="280.51 133.12 280.3 134.53 285.05 137.26 285.25 135.86 280.51 133.12"/><polygon class="cls-11" points="266.46 130.51 266.25 131.91 271 134.66 271.2 133.25 266.46 130.51"/><polygon class="cls-10" points="274.2 151.5 274 152.91 281.96 157.5 282.17 156.1 274.2 151.5"/><polygon class="cls-10" points="280.89 149.85 280.68 151.26 288.65 155.86 288.85 154.45 280.89 149.85"/><polygon class="cls-10" points="287.29 148.04 287.08 149.44 295.05 154.05 295.26 152.64 287.29 148.04"/><polygon class="cls-11" points="280.85 144.33 280.65 145.73 285.4 148.47 285.6 147.07 280.85 144.33"/><polygon class="cls-12" points="296.92 153.6 296.71 155.01 308.31 161.7 308.51 160.3 296.92 153.6"/><polygon class="cls-11" points="274.45 146.14 274.25 147.55 279 150.29 279.2 148.88 274.45 146.14"/><polygon class="cls-12" points="290.52 155.41 290.31 156.82 307.57 166.78 307.77 165.38 290.52 155.41"/><polygon class="cls-12" points="283.83 157.06 283.63 158.46 306.82 171.85 307.03 170.45 283.83 157.06"/><polygon class="cls-10" points="287.71 164.28 287.51 165.68 295.47 170.28 295.68 168.87 287.71 164.28"/><polygon class="cls-11" points="267.77 147.78 267.56 149.19 272.31 151.93 272.52 150.52 267.77 147.78"/><polygon class="cls-12" points="301.01 179.1 300.81 180.51 305.18 183.03 305.39 181.63 301.01 179.1"/><polygon class="cls-12" points="300.29 184.02 300.08 185.42 304.46 187.94 304.67 186.54 300.29 184.02"/><path class="cls-4" d="M258.81,91a.34.34,0,0,0,.35,0l.39-.21.27.59a.86.86,0,0,0,.31.36.36.36,0,0,0,.36,0,.66.66,0,0,0,.11-.81l-.28-.6.39-.21a.63.63,0,0,0,.11-.8.83.83,0,0,0-.31-.37.36.36,0,0,0-.36,0l-.38.21-.28-.59a.78.78,0,0,0-.3-.36.34.34,0,0,0-.35,0,.64.64,0,0,0-.11.81l.27.59-.38.22a.64.64,0,0,0-.11.81A.84.84,0,0,0,258.81,91Z"/><path class="cls-4" d="M312.41,129.1l-87.9-50.75c-1.18-.68-2.29-.06-2.49,1.38l-.51,3.81a4.11,4.11,0,0,0,1.76,3.85l87.91,50.75c1.17.68,2.28.05,2.48-1.39l.52-3.81A4.1,4.1,0,0,0,312.41,129.1Z"/><path class="cls-4" d="M324.92,137.65l-6.09-3.52c-.31-.17-.6,0-.65.37a1.09,1.09,0,0,0,.46,1l6.09,3.51a.42.42,0,0,0,.66-.36A1.1,1.1,0,0,0,324.92,137.65Z"/><path class="cls-4" d="M324.22,142.84l-6.1-3.51c-.3-.18-.6,0-.65.36a1.09,1.09,0,0,0,.47,1l6.09,3.51c.31.18.6,0,.65-.36A1.09,1.09,0,0,0,324.22,142.84Z"/><path class="cls-4" d="M324.57,140.25l-6.09-3.52c-.31-.18-.61,0-.66.37a1.08,1.08,0,0,0,.47,1l6.09,3.52c.31.18.6,0,.66-.37A1.08,1.08,0,0,0,324.57,140.25Z"/><path class="cls-8" d="M262.92,94.65l-.12-4.24a4.88,4.88,0,0,0-2.2-3.75l-31.14-18a1.82,1.82,0,0,0-2.82.84L225.46,73l-4.35-2.51c-1.18-.68-2.29-.06-2.48,1.39l-9.53,70a4.09,4.09,0,0,0,1.77,3.84l29.28,16.9,65.08-43.59Z"/><polygon class="cls-13" points="103.23 180.73 80.36 194.02 87.47 240.58 103.25 231.41 119.13 240.58 126.24 194.02 103.23 180.73"/><polygon class="cls-14" points="103.41 213.78 103.38 254.21 79.76 240.58 69.19 194.02 103.41 213.78"/><polygon class="cls-15" points="137.42 194.02 126.84 240.58 103.38 254.21 103.41 213.78 137.42 194.02"/><polygon class="cls-16" points="78.53 235.14 79.76 240.58 103.38 254.21 103.39 254.2 103.39 249.5 78.53 235.14"/><polygon class="cls-17" points="128.08 235.15 103.39 249.5 103.39 254.2 126.84 240.58 128.08 235.15"/><polygon class="cls-18" points="103.41 214.66 137.19 195.03 137.42 194.02 103.41 213.78 69.19 194.02 69.42 195.03 103.41 214.66"/><path class="cls-19" d="M103.19,174.26,137.42,194l-34,19.76L69.19,194Zm.19,33L126.24,194l-23-13.29L80.36,194l23,13.28"/><path class="cls-20" d="M90,206a8,8,0,0,0,6.41-2.75l-16-9.25,13.71-8c-2.26-.53-4.18.26-7-2.09l-.23-.19L69.19,194Z"/><path class="cls-21" d="M81.34,130.89c.89-6-1.25-6,.62-12,2.17-6,5.08-8.29,7.57-14,4.1,4.68,7.57,6,11.46,11,3.62,5.18,1.59,5.87,4.25,11.29,2.4,5.51,5,5,7.1,10.77,1.86,5.9-1.21,6.31-.29,12.22.64,5.94,4.18,5.78,4.49,12,0,6.19-4,6.08-4.84,12-1.18,5.94,3.18,6.41,1.58,12.51-1.89,6-6.58,5.21-9.34,10.82C99.61,193,95.4,195.2,91.76,190c-3.38-5.32.63-7.09-2.29-12.4-2.67-5.41-6.42-4.1-8.28-10-1.58-6,1.84-6.9.65-12.76-.92-5.9-4-5.36-4-11.55C78.11,137.11,80.73,136.87,81.34,130.89Z"/><path class="cls-22" d="M116.54,162.11c-.24-4.74-2.38-5.75-3.65-8.66a12.17,12.17,0,0,1-.84,2.12c-2.17,4.78-5.08,3.68-7,8.75-1.71,5.16,1.64,6.16.75,11.39-.65,5.29-4.42,4.48-4.75,10-.06,4.79,3,5.9,4.34,9.58,2.74-3.31,6.32-3.53,7.92-8.63,1.6-6.1-2.76-6.57-1.58-12.51C112.59,168.19,116.56,168.3,116.54,162.11Z"/><path class="cls-22" d="M80.7,134.09C82.92,137,82,138.15,84.58,142c2.77,4.51,4.94,3.7,7.51,8.5,2.34,4.91-.28,5.64,1.24,10.67,1.29,5.09,4.36,4.51,5.39,9.85.77,5.38-2.7,5.78-2.74,11.07-.29,5.32,3.56,5.19,2.92,10.69a9,9,0,0,1-.39,1.55c-2.38-.77-4.66-1.3-6.75-4.28-3.38-5.32.63-7.09-2.29-12.4-2.67-5.41-6.42-4.1-8.28-10-1.58-6,1.84-6.9.65-12.76-.92-5.9-4-5.36-4-11.55C78.06,138.46,79.7,137.25,80.7,134.09Z"/><g class="cls-23"><g class="cls-24"><line class="cls-25" x1="89.06" y1="101.81" x2="104.48" y2="200.95"/><polyline class="cls-25" points="76.97 177.49 103.05 191.75 123.56 170.24"/><polyline class="cls-25" points="74.58 162.15 100.66 176.41 121.18 154.9"/><polyline class="cls-25" points="72.19 146.81 98.28 161.07 118.79 139.56"/><polyline class="cls-25" points="69.81 131.47 95.89 145.72 116.41 124.22"/><polyline class="cls-25" points="67.42 116.13 93.5 130.38 114.02 108.88"/><polyline class="cls-25" points="65.03 100.79 91.11 115.04 111.63 93.53"/></g></g><path class="cls-26" d="M49.86,166.29c-2.65-4.59-4.15-3.45-6.17-8.62-1.78-5.3-1-8.48-2.45-13.76,5.38,1,8.49,0,13.91,1.31,5.33,1.58,4.3,3.17,9.1,5.43,4.67,2.48,6.13.69,10.78,3.52,4.51,3,2.63,5,6.49,8.56,3.69,3.73,6,1.68,9.63,5.76,3.4,4.24.61,6.34,3.27,10.93,2.44,4.73,5.69,2.67,7.93,7.73,2,5.19-1.67,7.18-.5,12.55-5.44-.72-7.12,3.1-12.46,1.53C84.15,199.43,85.94,196,81,194c-4.8-2.26-6.66.7-11.17-2.35-4.36-3.23-2.51-5.75-6.54-9.12-3.86-3.55-5.66-1.51-9.06-5.75C51.05,172.34,52.72,170.74,49.86,166.29Z"/><g class="cls-27"><g class="cls-24"><line class="cls-25" x1="39.25" y1="142.08" x2="104.12" y2="201.78"/><polyline class="cls-25" points="72.36 200.72 98.09 196.24 100.42 170.23"/><polyline class="cls-25" points="62.33 191.48 88.06 187 90.39 160.99"/><polyline class="cls-25" points="52.29 182.24 78.02 177.76 80.35 151.75"/><polyline class="cls-25" points="42.25 173 67.98 168.53 70.31 142.51"/><polyline class="cls-25" points="32.22 163.76 57.95 159.29 60.28 133.27"/><polyline class="cls-25" points="22.18 154.52 47.91 150.05 50.24 124.04"/></g></g><path class="cls-28" d="M135.54,143.1c4.39-3,3.14-4.38,8.16-6.75,5.16-2.15,8.38-1.64,13.55-3.42-.58,5.43.63,8.47-.32,14-1.2,5.42-2.86,4.52-4.78,9.46-2.15,4.83-.26,6.16-2.76,11-2.71,4.71-4.8,3-8.08,7.07-3.46,3.95-1.25,6.15-5.07,10-4,3.69-6.28,1.06-10.67,4-4.55,2.77-2.26,5.87-7.16,8.46-5,2.36-7.28-1.16-12.55.38.34-5.48-3.6-6.89-2.41-12.33,1.44-5.34,5-3.8,6.67-8.85,1.92-4.94-1.16-6.59,1.56-11.3,2.92-4.58,5.56-2.91,8.64-7.16,3.27-4.1,1.11-5.76,5.1-9.45C129.59,144.71,131.3,146.26,135.54,143.1Z"/><g class="cls-29"><g class="cls-24"><line class="cls-25" x1="158.94" y1="130.82" x2="103.94" y2="199.72"/><polyline class="cls-25" points="102.77 167.97 109.04 193.32 135.16 193.82"/><polyline class="cls-25" points="111.28 157.31 117.55 182.66 143.67 183.16"/><polyline class="cls-25" points="119.8 146.64 126.07 172 152.18 172.5"/><polyline class="cls-25" points="128.31 135.98 134.58 161.34 160.69 161.84"/><polyline class="cls-25" points="136.82 125.32 143.09 150.68 169.2 151.18"/><polyline class="cls-25" points="145.33 114.66 151.6 140.01 177.71 140.51"/></g></g><g class="cls-2"><polygon class="cls-30" points="260.52 320.77 256.29 318.31 256.3 208.25 260.52 210.71 260.52 320.77"/><polygon class="cls-30" points="199.68 355.89 195.45 353.44 195.45 240.11 199.68 242.57 199.68 355.89"/><polygon class="cls-31" points="199.68 242.57 195.45 240.11 259.12 203.35 263.35 205.81 199.68 242.57"/><polygon class="cls-13" points="263.35 205.81 263.35 319.13 260.52 320.77 260.52 210.71 202.53 244.19 202.52 354.25 199.68 355.89 199.68 242.57 263.35 205.81"/></g><g class="cls-2"><polygon class="cls-30" points="142.96 252.66 138.73 250.2 138.74 140.14 142.96 142.59 142.96 252.66"/><polygon class="cls-30" points="82.12 287.78 77.89 285.32 77.89 172 82.12 174.46 82.12 287.78"/><polygon class="cls-31" points="82.12 174.46 77.89 172 141.56 135.24 145.79 137.7 82.12 174.46"/><polygon class="cls-13" points="145.79 137.7 145.79 251.02 142.96 252.66 142.96 142.59 84.97 176.08 84.96 286.14 82.12 287.78 82.12 174.46 145.79 137.7"/></g><polygon class="cls-32" points="71.18 171.62 71.18 178.01 196.59 251.4 196.59 245.02 71.18 171.62"/><polygon class="cls-16" points="71.18 171.62 196.59 245.02 269.63 204.02 144.22 130.63 71.18 171.62"/><polygon class="cls-17" points="196.59 245.02 196.59 251.4 269.63 210.41 269.63 204.02 196.59 245.02"/><polygon class="cls-33" points="269.63 204.02 269.63 205.02 196.59 246.01 71.18 172.62 71.18 171.62 196.59 245.02 269.63 204.02"/><path class="cls-34" d="M191.07,139.79l-46-26.57a.8.8,0,0,0-.61-.1l-1.09.27a.8.8,0,0,1,.61.1l46,26.57a1.77,1.77,0,0,1,.71,1.8l-7.49,34.22a1,1,0,0,1-.65.78l1.1-.28a.93.93,0,0,0,.64-.77l7.49-34.22A1.78,1.78,0,0,0,191.07,139.79Z"/><path class="cls-35" d="M190,140.06l-46-26.57c-.54-.31-1.1,0-1.25.67l-7.49,34.22a1.75,1.75,0,0,0,.71,1.8l46,26.58c.54.31,1.1,0,1.25-.68l7.49-34.22A1.77,1.77,0,0,0,190,140.06Z"/><polygon class="cls-3" points="143.53 115.22 136.72 146.37 182.82 172.99 189.63 141.84 143.53 115.22"/><polygon class="cls-9" points="149.46 124.26 149.29 124.87 144.35 122.08 144.52 121.46 149.46 124.26"/><polygon class="cls-6" points="177.2 139.96 177.04 140.57 173.83 138.75 174 138.14 177.2 139.96"/><polygon class="cls-5" points="181.29 142.27 181.13 142.88 177.92 141.07 178.09 140.46 181.29 142.27"/><polygon class="cls-12" points="153.55 137.55 153.38 138.16 143.87 132.78 144.03 132.16 153.55 137.55"/><polygon class="cls-9" points="158.29 140.23 158.13 140.84 154.23 138.64 154.4 138.03 158.29 140.23"/><polygon class="cls-9" points="147.24 136.88 147.08 137.49 143.18 135.29 143.35 134.68 147.24 136.88"/><polygon class="cls-5" points="144.42 147.25 144.26 147.87 140.36 145.67 140.53 145.05 144.42 147.25"/><polygon class="cls-6" points="145.13 144.66 144.96 145.28 141.07 143.07 141.24 142.46 145.13 144.66"/><polygon class="cls-9" points="145.83 142.07 145.67 142.68 141.77 140.48 141.94 139.87 145.83 142.07"/><polygon class="cls-12" points="146.54 139.48 146.37 140.09 142.48 137.89 142.64 137.28 146.54 139.48"/><polygon class="cls-12" points="151.6 148.32 151.44 148.94 147.54 146.73 147.71 146.12 151.6 148.32"/><polygon class="cls-7" points="161.49 150.93 161.33 151.54 146.3 143.04 146.46 142.43 161.49 150.93"/><polygon class="cls-7" points="152 139.58 151.84 140.19 147.94 137.98 148.11 137.37 152 139.58"/><polygon class="cls-12" points="167.63 142.88 167.46 143.49 144.49 130.49 144.65 129.88 167.63 142.88"/><polygon class="cls-12" points="168.25 140.6 168.08 141.21 145.11 128.21 145.27 127.6 168.25 140.6"/><polygon class="cls-12" points="168.87 138.32 168.71 138.93 145.73 125.93 145.89 125.32 168.87 138.32"/><polygon class="cls-12" points="173.23 137.71 173.06 138.32 150.09 125.32 150.25 124.71 173.23 137.71"/><path class="cls-8" d="M144,113.49c-.54-.31-1.1,0-1.25.67l-7.49,34.22a1.75,1.75,0,0,0,.71,1.8l6,3.45,38.44-19.13Z"/><g class="cls-2"><path class="cls-36" d="M182,177l-26.91,15.64a2.16,2.16,0,0,1-1.95,0l-46-26.57a.7.7,0,0,1-.41-.57v1.88a.65.65,0,0,0,.4.56l46,26.57a2.13,2.13,0,0,0,2,0L182,178.9a.68.68,0,0,0,.4-.56v-1.88A.67.67,0,0,1,182,177Z"/><path class="cls-37" d="M161.7,189.76,159.5,191a.69.69,0,0,0-.32.55c0,.21.14.29.32.19l2.21-1.28a.71.71,0,0,0,.31-.55C162,189.74,161.88,189.66,161.7,189.76Z"/><path class="cls-12" d="M182,177l-26.91,15.64a2.16,2.16,0,0,1-1.95,0l-46-26.57a.7.7,0,0,1-.41-.57v.26a.7.7,0,0,0,.4.54l46,26.57a2.16,2.16,0,0,0,2,0L182,177.25a.67.67,0,0,0,.4-.56v-.2A.67.67,0,0,1,182,177Z"/><path class="cls-38" d="M182,175.89l-46-26.57a2.16,2.16,0,0,0-1.95,0L107.15,165c-.54.31-.53.82,0,1.13l46,26.57a2.16,2.16,0,0,0,1.95,0L182,177A.6.6,0,0,0,182,175.89Z"/></g><path class="cls-39" d="M162.37,175.19l1.32.76a1.19,1.19,0,0,0,1.07,0l1.37-.79c.29-.17.29-.45,0-.63l-1.31-.76a1.21,1.21,0,0,0-1.08,0l-1.36.8A.33.33,0,0,0,162.37,175.19Z"/><path class="cls-40" d="M158.82,166.55l1.37.8a1.19,1.19,0,0,0,1.07,0l.2-.12a.33.33,0,0,0,0-.62l-1.37-.79a1.21,1.21,0,0,0-1.08,0l-.19.11A.33.33,0,0,0,158.82,166.55Z"/><path class="cls-41" d="M161.74,168.24l1.21.7a1.21,1.21,0,0,0,1.08,0l.19-.12a.33.33,0,0,0,0-.62l-1.21-.7a1.21,1.21,0,0,0-1.08,0l-.19.12A.33.33,0,0,0,161.74,168.24Z"/><path class="cls-42" d="M164.5,169.83l1.27.74a1.19,1.19,0,0,0,1.07,0l.2-.12a.33.33,0,0,0,0-.62l-1.27-.73a1.19,1.19,0,0,0-1.07,0l-.2.11A.33.33,0,0,0,164.5,169.83Z"/><path class="cls-43" d="M162.46,169.23l-1.21-.7a1.21,1.21,0,0,0-1.08,0l-1.21.7a.33.33,0,0,0,0,.62l1.22.71a1.19,1.19,0,0,0,1.07,0l1.21-.71A.33.33,0,0,0,162.46,169.23Z"/><path class="cls-44" d="M165.27,170.85l-1.26-.73a1.19,1.19,0,0,0-1.07,0l-1.22.71a.33.33,0,0,0,0,.62l1.27.73a1.19,1.19,0,0,0,1.07,0l1.22-.7A.33.33,0,0,0,165.27,170.85Z"/><path class="cls-45" d="M167.32,171.46l1.31.76a1.21,1.21,0,0,0,1.08,0l.2-.12a.33.33,0,0,0,0-.62l-1.31-.76a1.21,1.21,0,0,0-1.08,0l-.19.12A.33.33,0,0,0,167.32,171.46Z"/><path class="cls-46" d="M156.8,172l1.21.7a1.19,1.19,0,0,0,1.07,0l1.37-.79a.33.33,0,0,0,0-.62l-1.21-.71a1.19,1.19,0,0,0-1.07,0l-1.37.8A.33.33,0,0,0,156.8,172Z"/><path class="cls-47" d="M152.11,172.44l1.37.79a1.19,1.19,0,0,0,1.07,0l1.21-.7a.33.33,0,0,0,0-.62l-1.38-.79a1.19,1.19,0,0,0-1.07,0l-1.2.7A.33.33,0,0,0,152.11,172.44Z"/><path class="cls-48" d="M166.93,173.84l1.21-.71a.33.33,0,0,0,0-.62l-1.32-.76a1.19,1.19,0,0,0-1.07,0l-1.21.7a.33.33,0,0,0,0,.63l1.32.76A1.19,1.19,0,0,0,166.93,173.84Z"/><path class="cls-49" d="M170.18,173.12l1.38.79a1.19,1.19,0,0,0,1.07,0l.2-.12a.33.33,0,0,0,0-.62l-1.37-.79a1.19,1.19,0,0,0-1.07,0l-.2.11A.34.34,0,0,0,170.18,173.12Z"/><path class="cls-50" d="M163.26,173.5a.33.33,0,0,0,0-.62l-1.27-.73a1.19,1.19,0,0,0-1.07,0l-1.37.79a.33.33,0,0,0,0,.62l1.26.73a1.21,1.21,0,0,0,1.08,0Z"/><path class="cls-51" d="M155,174.13l1.21.7a1.21,1.21,0,0,0,1.08,0l1.2-.7a.33.33,0,0,0,0-.62l-1.21-.7a1.21,1.21,0,0,0-1.08,0l-1.2.7A.33.33,0,0,0,155,174.13Z"/><path class="cls-52" d="M173.11,174.8l1.21.7a1.19,1.19,0,0,0,1.07,0l.2-.11c.29-.18.29-.46,0-.62l-1.22-.71a1.16,1.16,0,0,0-1.07,0l-.2.11A.33.33,0,0,0,173.11,174.8Z"/><path class="cls-53" d="M150.49,174.75l1.38.79a1.19,1.19,0,0,0,1.07,0l1.26-.73a.33.33,0,0,0,0-.62l-1.37-.79a1.19,1.19,0,0,0-1.07,0l-1.26.73A.33.33,0,0,0,150.49,174.75Z"/><path class="cls-54" d="M157.79,175.72l1.27.73a1.16,1.16,0,0,0,1.07,0l1.21-.7a.33.33,0,0,0,0-.62l-1.26-.73a1.19,1.19,0,0,0-1.07,0l-1.21.7A.33.33,0,0,0,157.79,175.72Z"/><path class="cls-55" d="M172.61,177.12l1.22-.71a.33.33,0,0,0,0-.62l-4.13-2.39a1.19,1.19,0,0,0-1.07,0l-1.22.71a.33.33,0,0,0,0,.62l4.13,2.39A1.19,1.19,0,0,0,172.61,177.12Z"/><path class="cls-56" d="M153.41,176.44l1.22.7a1.19,1.19,0,0,0,1.07,0l1.26-.73a.33.33,0,0,0,0-.62l-1.22-.7a1.16,1.16,0,0,0-1.07,0l-1.26.74A.33.33,0,0,0,153.41,176.44Z"/><path class="cls-57" d="M178.64,176.53l-1.5-.87a1.21,1.21,0,0,0-1.08,0l-.2.11a.33.33,0,0,0,0,.63l1.5.87a1.19,1.19,0,0,0,1.07,0l.2-.12A.33.33,0,0,0,178.64,176.53Z"/><path class="cls-58" d="M169.71,178.8l1.36-.79a.33.33,0,0,0,0-.62l-3.4-2a1.19,1.19,0,0,0-1.07,0l-1.36.79a.33.33,0,0,0,0,.62l3.4,2A1.13,1.13,0,0,0,169.71,178.8Z"/><path class="cls-59" d="M176.88,177.55l-1.51-.87a1.25,1.25,0,0,0-1.07,0l-1.21.71a.33.33,0,0,0,0,.62l1.5.87a1.21,1.21,0,0,0,1.08,0l1.21-.7A.33.33,0,0,0,176.88,177.55Z"/><path class="cls-60" d="M156.18,178l4,2.32a1.19,1.19,0,0,0,1.07,0l1.26-.73a.33.33,0,0,0,0-.62l-4-2.32a1.21,1.21,0,0,0-1.08,0l-1.25.73A.33.33,0,0,0,156.18,178Z"/><path class="cls-61" d="M167,180.4l1.2-.7a.33.33,0,0,0,0-.62L162.88,176a1.19,1.19,0,0,0-1.07,0l-1.2.7a.33.33,0,0,0,0,.62l5.28,3.05A1.21,1.21,0,0,0,167,180.4Z"/><path class="cls-62" d="M174.12,179.15l-1.5-.86a1.16,1.16,0,0,0-1.07,0l-1.37.8a.33.33,0,0,0,0,.62l1.5.87a1.19,1.19,0,0,0,1.07,0l1.37-.8C174.42,179.6,174.42,179.33,174.12,179.15Z"/><path class="cls-63" d="M159.73,180.63l-1.38-.8a1.21,1.21,0,0,0-1.08,0l-1.25.73a.33.33,0,0,0,0,.62l1.38.8a1.16,1.16,0,0,0,1.07,0l1.25-.72A.33.33,0,0,0,159.73,180.63Z"/><path class="cls-64" d="M161.75,181.25l1.34.77a1.15,1.15,0,0,0,1.08,0l1.26-.73a.33.33,0,0,0,0-.62l-1.35-.77a1.16,1.16,0,0,0-1.07,0l-1.26.73A.33.33,0,0,0,161.75,181.25Z"/><path class="cls-65" d="M171.22,180.84l-1.5-.87a1.21,1.21,0,0,0-1.08,0l-1.2.7a.33.33,0,0,0,0,.62l1.51.87a1.19,1.19,0,0,0,1.07,0l1.2-.7A.33.33,0,0,0,171.22,180.84Z"/><path class="cls-66" d="M168.48,182.44l-1.51-.87a1.19,1.19,0,0,0-1.07,0l-1.26.73a.33.33,0,0,0,0,.62l1.51.87a1.19,1.19,0,0,0,1.07,0l1.26-.73A.33.33,0,0,0,168.48,182.44Z"/><path class="cls-67" d="M165.68,184.06l-1.5-.87a1.21,1.21,0,0,0-1.08,0l-1.25.73a.33.33,0,0,0,0,.62l1.51.87a1.19,1.19,0,0,0,1.07,0l1.25-.73A.33.33,0,0,0,165.68,184.06Z"/><path class="cls-68" d="M162.62,182.3l-1.34-.78a1.21,1.21,0,0,0-1.08,0l-1.25.73a.33.33,0,0,0,0,.62l1.34.78a1.21,1.21,0,0,0,1.08,0l1.25-.73A.33.33,0,0,0,162.62,182.3Z"/><path class="cls-69" d="M156.8,178.93l-1.09-.62a1.15,1.15,0,0,0-1.08,0l-1.25.72c-.29.17-.29.45,0,.63l1.09.62a1.19,1.19,0,0,0,1.07,0l1.25-.72A.34.34,0,0,0,156.8,178.93Z"/><path class="cls-70" d="M154.16,177.41l-1.22-.7a1.19,1.19,0,0,0-1.07,0l-1.25.73a.33.33,0,0,0,0,.62l1.22.7a1.19,1.19,0,0,0,1.07,0l1.25-.73A.33.33,0,0,0,154.16,177.41Z"/><path class="cls-71" d="M141,166l1.37.79a1.19,1.19,0,0,0,1.07,0l1.21-.7a.33.33,0,0,0,0-.62l-1.37-.8a1.19,1.19,0,0,0-1.07,0l-1.21.71C140.7,165.58,140.7,165.85,141,166Z"/><path class="cls-72" d="M128.08,161.19a.33.33,0,0,0,0,.62l1.37.79a1.13,1.13,0,0,0,1.07,0l1.26-.73a.33.33,0,0,0,0-.62l-1.37-.79a1.19,1.19,0,0,0-1.07,0Z"/><path class="cls-73" d="M125,156.76l3.2,1.85a1.19,1.19,0,0,0,1.07,0l1.21-.7a.33.33,0,0,0,0-.62l-3.21-1.85a1.19,1.19,0,0,0-1.07,0l-1.2.7A.33.33,0,0,0,125,156.76Z"/><path class="cls-74" d="M127.69,155.17l2.23,1.28a1.19,1.19,0,0,0,1.07,0l1.36-.79c.3-.17.29-.45,0-.63l-2.22-1.28a1.21,1.21,0,0,0-1.08,0l-1.36.79A.34.34,0,0,0,127.69,155.17Z"/><path class="cls-75" d="M123.67,159.81l-2-1.15a1.19,1.19,0,0,0-1.07,0l-1.25.73a.33.33,0,0,0,0,.62l2,1.15a1.19,1.19,0,0,0,1.07,0l1.25-.73A.33.33,0,0,0,123.67,159.81Z"/><path class="cls-76" d="M136.41,153.61l1.37.8a1.19,1.19,0,0,0,1.07,0l.2-.12a.33.33,0,0,0,0-.62l-1.37-.79a1.19,1.19,0,0,0-1.07,0l-.2.12C136.11,153.17,136.11,153.44,136.41,153.61Z"/><path class="cls-77" d="M137.29,154.69l-1.38-.79a1.19,1.19,0,0,0-1.07,0l-1.21.71a.33.33,0,0,0,0,.62L135,156a1.21,1.21,0,0,0,1.08,0l1.21-.7C137.59,155.15,137.58,154.87,137.29,154.69Z"/><path class="cls-78" d="M132.83,155.93l-1.37.79a.33.33,0,0,0,0,.62l1.37.8a1.19,1.19,0,0,0,1.07,0l1.37-.8a.33.33,0,0,0,0-.62l-1.37-.79A1.19,1.19,0,0,0,132.83,155.93Z"/><path class="cls-79" d="M139.33,155.3l1.21.7a1.21,1.21,0,0,0,1.08,0l.2-.11a.33.33,0,0,0,0-.62l-1.21-.71a1.19,1.19,0,0,0-1.07,0l-.2.12A.33.33,0,0,0,139.33,155.3Z"/><path class="cls-80" d="M142.09,156.9l1.27.73a1.19,1.19,0,0,0,1.07,0l.2-.12a.33.33,0,0,0,0-.62l-1.27-.73a1.19,1.19,0,0,0-1.07,0l-.2.12A.33.33,0,0,0,142.09,156.9Z"/><path class="cls-81" d="M144.91,158.52l1.25.72a1.19,1.19,0,0,0,1.07,0l.2-.11a.33.33,0,0,0,0-.62l-1.25-.73a1.16,1.16,0,0,0-1.07,0l-.2.11A.33.33,0,0,0,144.91,158.52Z"/><path class="cls-82" d="M147.71,160.14l1.37.79a1.19,1.19,0,0,0,1.07,0l.2-.12a.33.33,0,0,0,0-.62L149,159.4a1.21,1.21,0,0,0-1.08,0l-.2.12A.33.33,0,0,0,147.71,160.14Z"/><path class="cls-83" d="M148.58,161.22l-1.37-.79a1.19,1.19,0,0,0-1.07,0l-1.22.7a.33.33,0,0,0,0,.62l1.37.8a1.19,1.19,0,0,0,1.07,0l1.22-.71A.33.33,0,0,0,148.58,161.22Z"/><path class="cls-84" d="M145.66,159.53l-1.25-.72a1.19,1.19,0,0,0-1.07,0l-1.21.71a.33.33,0,0,0,0,.62l1.25.72a1.19,1.19,0,0,0,1.07,0l1.22-.71A.33.33,0,0,0,145.66,159.53Z"/><path class="cls-85" d="M142.87,157.92l-1.27-.74a1.25,1.25,0,0,0-1.07,0l-1.22.71a.33.33,0,0,0,0,.62l1.26.73a1.19,1.19,0,0,0,1.07,0l1.22-.7A.33.33,0,0,0,142.87,157.92Z"/><path class="cls-86" d="M140.05,156.29l-1.21-.7a1.21,1.21,0,0,0-1.08,0l-1.21.71a.33.33,0,0,0,0,.62l1.21.7a1.21,1.21,0,0,0,1.08,0l1.21-.71A.33.33,0,0,0,140.05,156.29Z"/><path class="cls-87" d="M138,158.32l-1.21-.7a1.19,1.19,0,0,0-1.07,0l-1.37.79a.33.33,0,0,0,0,.62l1.21.7a1.19,1.19,0,0,0,1.07,0l1.37-.79A.33.33,0,0,0,138,158.32Z"/><path class="cls-88" d="M129.7,158.88a.33.33,0,0,0,0,.62l1.37.8a1.21,1.21,0,0,0,1.08,0l1.2-.7a.33.33,0,0,0,0-.63l-1.37-.79a1.21,1.21,0,0,0-1.08,0Z"/><path class="cls-89" d="M122.15,158.39l4.39,2.53a1.19,1.19,0,0,0,1.07,0l1.26-.73a.33.33,0,0,0,0-.62L124.48,157a1.19,1.19,0,0,0-1.07,0l-1.26.74A.33.33,0,0,0,122.15,158.39Z"/><path class="cls-90" d="M132.62,160.57a.33.33,0,0,0,0,.62l1.22.7a1.19,1.19,0,0,0,1.07,0l1.2-.7a.33.33,0,0,0,0-.62l-1.21-.7a1.21,1.21,0,0,0-1.08,0Z"/><path class="cls-91" d="M157.68,169.66l-1.37-.79a1.19,1.19,0,0,0-1.07,0l-1.37.79a.33.33,0,0,0,0,.62l1.38.79a1.13,1.13,0,0,0,1.07,0l1.36-.79A.33.33,0,0,0,157.68,169.66Z"/><path class="cls-92" d="M150.63,161.82l1.21.7a1.18,1.18,0,0,0,1.08,0l.19-.12a.33.33,0,0,0,0-.62l-1.21-.7a1.19,1.19,0,0,0-1.07,0l-.21.11A.33.33,0,0,0,150.63,161.82Z"/><path class="cls-93" d="M153.39,163.42l1.27.73a1.19,1.19,0,0,0,1.07,0l.2-.12a.33.33,0,0,0,0-.62l-1.27-.73a1.19,1.19,0,0,0-1.07,0l-.2.12A.33.33,0,0,0,153.39,163.42Z"/><path class="cls-94" d="M154.16,164.44l-1.26-.73a1.21,1.21,0,0,0-1.08,0l-1.21.7a.33.33,0,0,0,0,.62l1.27.74a1.19,1.19,0,0,0,1.07,0l1.22-.71A.33.33,0,0,0,154.16,164.44Z"/><path class="cls-95" d="M152.15,166.47l-1.27-.73a1.16,1.16,0,0,0-1.07,0l-1.37.8a.33.33,0,0,0,0,.62l1.26.73a1.21,1.21,0,0,0,1.08,0l1.36-.79A.33.33,0,0,0,152.15,166.47Z"/><path class="cls-96" d="M156.21,165.05l1.06.61a1.19,1.19,0,0,0,1.07,0l.2-.12a.33.33,0,0,0,0-.62l-1.06-.61a1.21,1.21,0,0,0-1.08,0l-.2.11C155.91,164.6,155.91,164.87,156.21,165.05Z"/><path class="cls-97" d="M156.77,166l-1.06-.62a1.19,1.19,0,0,0-1.07,0l-1.22.71a.33.33,0,0,0,0,.62l1.06.61a1.19,1.19,0,0,0,1.07,0l1.22-.7A.33.33,0,0,0,156.77,166Z"/><path class="cls-98" d="M154.76,168l-1.07-.61a1.19,1.19,0,0,0-1.07,0l-1.36.79a.33.33,0,0,0,0,.62l1.06.62a1.21,1.21,0,0,0,1.08,0l1.36-.8A.33.33,0,0,0,154.76,168Z"/><path class="cls-99" d="M140.85,159.94l-1.27-.73a1.19,1.19,0,0,0-1.07,0l-1.36.79c-.3.18-.3.45,0,.63l1.27.73a1.19,1.19,0,0,0,1.07,0l1.36-.8A.33.33,0,0,0,140.85,159.94Z"/><path class="cls-100" d="M143.65,161.56l-1.25-.72a1.19,1.19,0,0,0-1.07,0l-1.37.79a.33.33,0,0,0,0,.62l1.24.72a1.21,1.21,0,0,0,1.08,0l1.36-.79A.33.33,0,0,0,143.65,161.56Z"/><path class="cls-101" d="M135.38,162.79l1.27.73a1.21,1.21,0,0,0,1.08,0l1.2-.7a.34.34,0,0,0,0-.63l-1.27-.73a1.19,1.19,0,0,0-1.07,0l-1.21.71A.33.33,0,0,0,135.38,162.79Z"/><path class="cls-102" d="M151.35,162.81l-1.22-.7a1.19,1.19,0,0,0-1.07,0l-1.22.71a.33.33,0,0,0,0,.62l1.21.7a1.21,1.21,0,0,0,1.08,0l1.21-.71A.33.33,0,0,0,151.35,162.81Z"/><path class="cls-103" d="M131,163.5l1.21.7a1.19,1.19,0,0,0,1.07,0l1.26-.73a.33.33,0,0,0,0-.62l-1.22-.7a1.19,1.19,0,0,0-1.07,0l-1.26.73A.33.33,0,0,0,131,163.5Z"/><path class="cls-104" d="M146.57,163.25l-1.37-.8a1.21,1.21,0,0,0-1.08,0l-1.36.8c-.3.17-.29.44,0,.62l1.37.79a1.21,1.21,0,0,0,1.08,0l1.36-.8A.32.32,0,0,0,146.57,163.25Z"/><path class="cls-105" d="M138.2,164.41l1.25.72a1.19,1.19,0,0,0,1.07,0l1.21-.7a.33.33,0,0,0,0-.62l-1.25-.72a1.19,1.19,0,0,0-1.07,0l-1.2.7A.33.33,0,0,0,138.2,164.41Z"/><path class="cls-106" d="M133.77,165.1l1.26.73a1.21,1.21,0,0,0,1.08,0l1.26-.73a.33.33,0,0,0,0-.63l-1.26-.73a1.21,1.21,0,0,0-1.08,0l-1.25.73C133.47,164.64,133.47,164.92,133.77,165.1Z"/><path class="cls-107" d="M132.17,164.72,130.9,164a1.13,1.13,0,0,0-1.07,0l-1.25.72a.33.33,0,0,0,0,.62l1.27.74a1.16,1.16,0,0,0,1.07,0l1.25-.72A.33.33,0,0,0,132.17,164.72Z"/><path class="cls-108" d="M149.33,164.84l-1.21-.7a1.19,1.19,0,0,0-1.07,0l-1.37.79a.33.33,0,0,0,0,.62l1.22.7a1.13,1.13,0,0,0,1.07,0l1.37-.79A.33.33,0,0,0,149.33,164.84Z"/><path class="cls-109" d="M136.59,166.72l1.24.72a1.21,1.21,0,0,0,1.08,0l1.26-.73a.33.33,0,0,0,0-.62l-1.25-.72a1.19,1.19,0,0,0-1.07,0l-1.26.73A.33.33,0,0,0,136.59,166.72Z"/><path class="cls-110" d="M135,166.33l-1.25-.72a1.19,1.19,0,0,0-1.07,0l-1.25.73a.33.33,0,0,0,0,.62l1.25.72a1.19,1.19,0,0,0,1.07,0L135,167A.33.33,0,0,0,135,166.33Z"/><path class="cls-111" d="M143.92,167.71l1.21.7a1.15,1.15,0,0,0,1.08,0l1.2-.7a.33.33,0,0,0,0-.62l-1.22-.7a1.19,1.19,0,0,0-1.07,0l-1.2.7A.33.33,0,0,0,143.92,167.71Z"/><path class="cls-112" d="M139.38,168.34l1.37.79a1.21,1.21,0,0,0,1.08,0l1.26-.73c.29-.17.29-.45,0-.63l-1.37-.79a1.19,1.19,0,0,0-1.07,0l-1.26.73A.33.33,0,0,0,139.38,168.34Z"/><path class="cls-113" d="M146.68,169.31,148,170a1.19,1.19,0,0,0,1.07,0l1.21-.7a.33.33,0,0,0,0-.62L149,168a1.21,1.21,0,0,0-1.08,0l-1.2.7A.33.33,0,0,0,146.68,169.31Z"/><path class="cls-114" d="M142.3,170l1.22.7a1.19,1.19,0,0,0,1.07,0l1.26-.73a.33.33,0,0,0,0-.62l-1.21-.7a1.19,1.19,0,0,0-1.07,0l-1.26.73A.33.33,0,0,0,142.3,170Z"/><path class="cls-115" d="M149.5,170.93l1.06.62a1.19,1.19,0,0,0,1.07,0l1.21-.7a.33.33,0,0,0,0-.62l-1.07-.62a1.19,1.19,0,0,0-1.07,0l-1.21.7A.33.33,0,0,0,149.5,170.93Z"/><path class="cls-116" d="M145.07,171.62l1.26.73a1.21,1.21,0,0,0,1.08,0l1.26-.73a.33.33,0,0,0,0-.62l-1.27-.73a1.19,1.19,0,0,0-1.07,0l-1.26.73A.33.33,0,0,0,145.07,171.62Z"/><path class="cls-117" d="M147.88,173.24l1.06.62a1.21,1.21,0,0,0,1.08,0l1.26-.74c.29-.17.29-.44,0-.62l-1.06-.61a1.19,1.19,0,0,0-1.07,0l-1.26.73A.33.33,0,0,0,147.88,173.24Z"/><path class="cls-118" d="M151.4,175.82l-14.88-8.59a1.15,1.15,0,0,0-1.08,0l-1.25.72c-.29.17-.29.45,0,.63l14.87,8.59a1.24,1.24,0,0,0,1.08,0l1.25-.73A.33.33,0,0,0,151.4,175.82Z"/><path class="cls-119" d="M126.59,161.5l-1.37-.8a1.19,1.19,0,0,0-1.07,0l-1.25.73a.33.33,0,0,0,0,.62l1.37.8a1.19,1.19,0,0,0,1.07,0l1.25-.72C126.89,161.94,126.89,161.67,126.59,161.5Z"/><path class="cls-120" d="M129.35,163.09l-1.21-.7a1.19,1.19,0,0,0-1.07,0l-1.25.73a.33.33,0,0,0,0,.62l1.21.7a1.21,1.21,0,0,0,1.08,0l1.25-.73A.33.33,0,0,0,129.35,163.09Z"/><path class="cls-121" d="M133.38,151.86l1.48.86a1.19,1.19,0,0,0,1.07,0l.2-.12a.33.33,0,0,0,0-.62l-1.49-.85a1.16,1.16,0,0,0-1.07,0l-.2.11A.33.33,0,0,0,133.38,151.86Z"/><path class="cls-122" d="M130.6,153.48l1.48.86a1.19,1.19,0,0,0,1.07,0l1.22-.71a.33.33,0,0,0,0-.62l-1.48-.86a1.19,1.19,0,0,0-1.07,0l-1.22.71A.33.33,0,0,0,130.6,153.48Z"/><path class="cls-123" d="M159.69,167.63l-1.37-.79a1.19,1.19,0,0,0-1.07,0l-1.21.71a.33.33,0,0,0,0,.62l1.37.79a1.19,1.19,0,0,0,1.07,0l1.22-.71A.33.33,0,0,0,159.69,167.63Z"/><path class="cls-124" d="M149.74,178.53l-18.45-10.66a1,1,0,0,0-.81,0l-8.65,5a.25.25,0,0,0,0,.47L140.28,184a.89.89,0,0,0,.81,0l8.65-5A.25.25,0,0,0,149.74,178.53Z"/><path class="cls-125" d="M114.22,333.87a73.38,73.38,0,0,0,10.9,5.2c4.64,1.56,6.08,1.7,6.7,2.94s1.19,3.63-1.13,4.43-18.32,2.87-20.9,3.21-8.1-.65-8.16-2.84,1.89-12.8,1.89-12.8Z"/><path class="cls-126" d="M114.07,332.46a73.54,73.54,0,0,0,10.9,5.21c4.65,1.56,6.08,1.69,6.7,2.93s1.19,3.64-1.12,4.44-18.33,2.87-20.9,3.21-8.11-.65-8.17-2.84,1.89-12.81,1.89-12.81Z"/><path class="cls-127" d="M115.92,334.83s-8.49,3.52-14.48-2.91c0,0,.43-21.11.77-45.31-9.16-15.25-23.9-28.37-32-35.21l32.43-15.66s16,25.61,18.5,46C120.84,295,115.92,334.83,115.92,334.83Z"/><path class="cls-125" d="M122,308.63a77.82,77.82,0,0,0,9,8.88c4.06,3.12,5.44,3.75,5.63,5.18s-.07,4-2.63,4-19.1-3.43-21.77-4-7.79-3.41-7.1-5.6,6.25-12,6.25-12Z"/><path class="cls-126" d="M122.31,307.19a76.93,76.93,0,0,0,9,8.88c4.06,3.12,5.43,3.75,5.62,5.19s-.06,4-2.62,4-19.11-3.42-21.77-4-7.8-3.42-7.11-5.61,6.25-12,6.25-12Z"/><path class="cls-128" d="M145,265.8s-.16,3.82-4.58,11.54-17.08,31-17.08,31-9.5.75-13.67-4c0,0,13.25-33.84,15.34-38.5S143.11,256.88,145,265.8Z"/><g class="cls-2"><polygon class="cls-129" points="65.61 243.9 61.38 241.44 74.87 339.45 79.1 341.91 65.61 243.9"/><polygon class="cls-130" points="43.09 252 38.86 249.54 25.38 368.02 29.61 370.48 43.09 252"/><polygon class="cls-31" points="69.28 236.87 65.05 234.42 38.86 249.54 43.09 252 69.28 236.87"/><polygon class="cls-131" points="43.09 252 29.61 370.48 33.91 367.99 46.8 254.76 65.61 243.9 79.1 341.91 83.39 339.43 69.28 236.87 43.09 252"/></g><g class="cls-2"><polygon class="cls-129" points="115.59 327.75 73.86 303.53 74.49 308.07 116.21 332.29 115.59 327.75"/><polygon class="cls-31" points="119.89 325.26 78.16 301.04 73.86 303.53 115.59 327.75 119.89 325.26"/><polygon class="cls-131" points="115.59 327.75 116.21 332.29 120.51 329.8 119.89 325.26 115.59 327.75"/></g><g class="cls-2"><polygon class="cls-130" points="76.88 345.93 35.16 321.71 34.56 326.96 76.28 351.18 76.88 345.93"/><polygon class="cls-31" points="81.18 343.45 39.45 319.23 35.16 321.71 76.88 345.93 81.18 343.45"/><polygon class="cls-131" points="76.88 345.93 76.28 351.18 80.58 348.69 81.18 343.45 76.88 345.93"/></g><g class="cls-2"><polygon class="cls-129" points="109.26 269.24 105.03 266.78 118.52 364.79 122.75 367.25 109.26 269.24"/><polygon class="cls-130" points="86.75 277.34 82.52 274.88 69.04 393.36 73.27 395.82 86.75 277.34"/><polygon class="cls-31" points="112.94 262.22 108.71 259.76 82.52 274.88 86.75 277.34 112.94 262.22"/><polygon class="cls-131" points="86.75 277.34 73.27 395.82 77.57 393.33 90.45 280.1 109.26 269.24 122.75 367.25 127.05 364.77 112.94 262.22 86.75 277.34"/></g><polygon class="cls-32" points="34.04 248.4 34.04 254.79 85.24 284.64 85.24 278.26 34.04 248.4"/><polygon class="cls-16" points="34.04 248.4 85.24 278.26 115.13 261.35 63.93 231.49 34.04 248.4"/><polygon class="cls-17" points="85.24 278.26 85.24 284.64 115.13 267.74 115.13 261.35 85.24 278.26"/><polygon class="cls-33" points="115.13 261.35 115.13 262.35 85.24 279.25 34.04 249.4 34.04 248.4 85.24 278.26 115.13 261.35"/><polygon class="cls-32" points="34.04 248.4 34.04 254.79 85.24 284.64 85.24 278.26 34.04 248.4"/><polygon class="cls-16" points="34.04 248.4 85.24 278.26 115.13 261.35 63.93 231.49 34.04 248.4"/><polygon class="cls-17" points="85.24 278.26 85.24 284.64 115.13 267.74 115.13 261.35 85.24 278.26"/><polygon class="cls-33" points="115.13 261.35 115.13 262.35 85.24 279.25 34.04 249.4 34.04 248.4 85.24 278.26 115.13 261.35"/><path class="cls-128" d="M102.7,233.88s28.25,14,34.09,17.34S145,259,145,266.3c0,3.92-10,3.83-19.67,1.92-2.37-.47-6-1.11-10.26-1.83l-.08-5-7.62-3.59s-12.39,4.88-21.52,3.3A60.43,60.43,0,0,1,78,259c-7-2.75-14.34-6.59-16-13.84Z"/><path class="cls-132" d="M117.56,162.09s2.18-1.57,2.82-2a4.93,4.93,0,0,1,2.13-.86c.74-.07,2.87-.33,3.48-.49s1.82-.67,2-.49a2.32,2.32,0,0,1-1.77,2.57c-1.83.6-2.79.46-3.51.82s-3.36,2.44-3.36,2.44Z"/><path class="cls-133" d="M119.31,162.49l3.59-1.91a5.21,5.21,0,0,1,2.33-.73,36.4,36.4,0,0,0,3.72-.21c.65-.12,2-.54,2.17-.34s-.1,2.09-2.09,2.56-3,.24-3.77.56-3.78,2.29-3.78,2.29Z"/><path class="cls-134" d="M120.9,163.9l4-1.74a5.61,5.61,0,0,1,2.55-.59c.85.06,3.29.16,4,.09s2.18-.43,2.37-.19a2.66,2.66,0,0,1-2.47,2.57c-2.17.35-3.22,0-4.09.29s-4.24,2.14-4.24,2.14Z"/><path class="cls-135" d="M78.49,169.23l2.33,6s7.31-1.89,11.4-2.58,15.74-3.82,18-5.16,6.86-5,7.29-5.35,1.52-1.15,2-.86a13,13,0,0,1,5.29,6.74c-.66,1.3-3.22,2.76-4.62,3.78s-4.68,1.65-6.83,1.65-10.64,5-17.68,8.71a152.16,152.16,0,0,1-18.22,8c-3,1-4.46.48-5.85-1.24s-5.11-9.19-6.56-13.76Z"/><path class="cls-136" d="M80,173.18a32,32,0,0,1-11,11.21,68.54,68.54,0,0,1-4-9.27l13.36-5.89Z"/><path class="cls-135" d="M122,166.15s2.86-1.23,3.56-1.55a5,5,0,0,1,2.26-.51c.75,0,2.92.14,3.55.08s1.93-.38,2.1-.17a2.35,2.35,0,0,1-2.18,2.28c-1.93.3-2.86,0-3.63.25s-3.75,1.9-3.75,1.9Z"/><path class="cls-137" d="M124.64,168.35c-.87,1.16-3,2.4-4.25,3.31-1.38-1.37-2.46-2.86-1.34-3.39C121,167.38,123.8,168.1,124.64,168.35Z"/><path class="cls-135" d="M117.29,172.85s2.89-.29,4.65-.31A6.51,6.51,0,0,0,125,172c.75-.34,1.84-1.46,2.41-1.69s1.89-.62,1.85-1.07-1.73-1.3-3.34-.7-2,.95-2.72.79-2-1.5-4-1.13S116,171.65,117.29,172.85Z"/><path class="cls-135" d="M68.75,102.42c7.89-.33,12.25,3.31,14.5,10.69s.81,8.56,2.62,12.5,1.32,7.31-.31,11.62-2.31,6.25-3.81,6.25a41.16,41.16,0,0,1-5.88-1.12L60,140.11s-6.5-6-8.44-19.75C49.65,106.78,58.31,102.86,68.75,102.42Z"/><path class="cls-138" d="M75.12,138.93s-.12,10.68,3.63,16.74,5.5,6.44,5.5,6.44-11,5.75-21.16,1.37a16.34,16.34,0,0,1-10.15-14.25s8.12-.56,5.68-14.56l11-1.58s1,2.23,4.8,3.29A5.08,5.08,0,0,1,75.12,138.93Z"/><path class="cls-139" d="M78.75,155.67s6.94,6.19,9.44,8.13,9,6.81,9.87,16.75-.56,33.68,2.38,43.12,4.93,9.5,3.37,15-9.69,12.94-23.06,14.56-22.19-5-23.88-16.25-4.25-32.31-6-42.5-7.25-25.81-6.16-34.06a24.92,24.92,0,0,1,2.37-8.08c2-3.58,8.19-4.33,8.73-4.33.84,0,1.64.83,8.56,2.83S74.62,153.59,78.75,155.67Z"/><path class="cls-140" d="M55.16,148.08s2.87-4.34,3.39-4.37a44.63,44.63,0,0,1,13.57,4A17.15,17.15,0,0,1,80,156.82S65.13,151.34,55.16,148.08Z"/><path class="cls-140" d="M99.27,217.64c-9.38-6.85-16-20.69-17.51-31.39l16.63,4.05C98.47,199,98.34,209.87,99.27,217.64Z"/><path class="cls-141" d="M140.07,185.42s.89-2.77,1.27-4.49a6.4,6.4,0,0,1,1.15-2.9c.49-.68,1.8-1.51,2.15-2s1-1.72,1.43-1.58.91,2,0,3.41-1.35,1.77-1.35,2.5,1.05,2.31.3,4.11S141,186.92,140.07,185.42Z"/><path class="cls-135" d="M105.12,187.77l3.62,5.95s7.31-1.88,11.39-2.58,15.75-3.82,18.06-5.16,6.29-7.47,6.72-7.79,1.52-1.15,2-.86c2.85,1.56,5.54,7.79,5.86,9.19-.66,1.3-3.22,2.76-4.62,3.77s-4.68,1.66-6.83,1.66-10.64,5-17.68,8.71a153.37,153.37,0,0,1-18.22,8c-3,1-4.46.48-5.86-1.23s-5.1-9.19-6.55-13.76Z"/><path class="cls-142" d="M138.34,189.1a12.25,12.25,0,0,1,.55,3.6l-1.92,1a13.32,13.32,0,0,0-1.05-3.82Z"/><path class="cls-143" d="M133.2,188.73c.18,1.06,1.62,1.69,3.21,1.42s2.73-1.36,2.54-2.42-1.62-1.69-3.21-1.42S133,187.67,133.2,188.73Z"/><path class="cls-144" d="M133.7,188.44c.15.87,1.34,1.4,2.64,1.17s2.25-1.12,2.1-2-1.33-1.39-2.64-1.17S133.55,187.57,133.7,188.44Z"/><path class="cls-135" d="M146.19,177.39l3.45-1.78a5,5,0,0,1,2.22-.66c.75,0,2.92-.06,3.55-.17s1.9-.5,2.08-.3a2.34,2.34,0,0,1-2,2.42c-1.9.43-2.85.2-3.6.49s-3.62,2.14-3.62,2.14Z"/><path class="cls-135" d="M147.86,179.51l4-1.75a5.47,5.47,0,0,1,2.55-.58c.85,0,3.29.15,4,.08s2.18-.42,2.36-.19-.29,2.23-2.46,2.58-3.22,0-4.09.28-4.24,2.14-4.24,2.14Z"/><path class="cls-135" d="M149.52,182.11l3.87-1.25a5.18,5.18,0,0,1,2.42-.3c.78.12,3,.44,3.7.44s2.05-.2,2.2,0a2.45,2.45,0,0,1-2.51,2.15c-2,.12-3-.28-3.81-.1s-4.12,1.59-4.12,1.59Z"/><path class="cls-135" d="M149.28,184.84,153,184a5,5,0,0,1,2.3-.1c.72.18,2.81.66,3.44.71s1.94,0,2.07.21a2.33,2.33,0,0,1-2.53,1.83c-1.93-.05-2.79-.5-3.58-.4s-4,1.17-4,1.17Z"/><path class="cls-139" d="M92.64,167.84s5.48,7.08,8.11,11,8.81,13.31,8.81,13.31a6.06,6.06,0,0,1,2.24-.58,33,33,0,0,1,1.85,14.85c-1.46.8-4.44,2.79-6.24,3.73s-4.7,2.17-6.12.5-4-4.08-6.08-6.79-11.84-8.3-13.59-18.3S87,161.67,92.64,167.84Z"/><path class="cls-145" d="M110.14,191.94s.1-.65.42-.75,7.56-.15,7.93-.15,1.72,1,2.5,4.78.38,6.69,0,7.09-7.49,4.58-7.74,4.69-1-.28-1-.28A31.75,31.75,0,0,0,110.14,191.94Z"/><path class="cls-146" d="M80.74,115.3a11.81,11.81,0,0,1,1,6.67,6.15,6.15,0,0,1-2-1.59s-.37,2.75-.41,3.13-1.71,1.58-1.84,2.33-.25,4.83-.25,4.83l-1.29.21a28.16,28.16,0,0,0-1.53-3.62c-.51-.75-2.13-2-2.84-1.25s-1.08,5.25-.54,7.21,3.38,3.16,3.38,3.16c0,4-1.18,5.5-1.51,5.71s-.83-1-.83-1-5.79,2.78-8.13,2.58a12.46,12.46,0,0,1-9.41-7.24s-.55,1-.71,1a19.32,19.32,0,0,1-6.38-11.58c-1.25-7.42,1-10.92,2.59-13.55-.13-4.12,1-8.33,6-10.16s9.46-2.54,11.5-4.42,5.16-4.75,5.75-4.54a6.87,6.87,0,0,1,3.29,5.79c3-1.12,6.16-4,6.54-2.67s2.33,7.25,0,11.21c1.79-.54,3.25-.54,3.25.13S85.58,114,80.74,115.3Z"/><path class="cls-147" d="M192.48,206.08l-.54-4.1a3.27,3.27,0,0,0,1.74,2.26,9.88,9.88,0,0,0,9,.09,3.42,3.42,0,0,0,1.94-2.39c-.18,1.37-.35,2.74-.52,4.11a3.13,3.13,0,0,1-1.78,2.18,9,9,0,0,1-8.21-.08A3,3,0,0,1,192.48,206.08Z"/><path class="cls-9" d="M191.93,202l-1.14-8.63a3.85,3.85,0,0,0,2.06,2.66,11.61,11.61,0,0,0,10.55.11,4,4,0,0,0,2.28-2.81l-1.09,8.63a3.4,3.4,0,0,1-1.93,2.39,9.9,9.9,0,0,1-9-.09A3.29,3.29,0,0,1,191.93,202Z"/><path class="cls-148" d="M190.79,193.36l-.21-1.63a4,4,0,0,0,2.11,2.73,11.93,11.93,0,0,0,10.85.11,4.08,4.08,0,0,0,2.34-2.88c-.06.54-.13,1.08-.2,1.62a4,4,0,0,1-2.28,2.81,11.61,11.61,0,0,1-10.55-.11A3.83,3.83,0,0,1,190.79,193.36Z"/><path class="cls-149" d="M204.49,184.75c3.32,2,3.21,5.19-.25,7.12a13.54,13.54,0,0,1-12.29-.13c-3.32-2-3.21-5.18.26-7.11A13.52,13.52,0,0,1,204.49,184.75Z"/><path class="cls-150" d="M202,184.47a8.23,8.23,0,0,0-7.47-.08c-2.1,1.18-2.17,3.11-.15,4.33a8.24,8.24,0,0,0,7.46.07C204,187.62,204,185.68,202,184.47Z"/><path class="cls-151" d="M199.54,186.08a2.88,2.88,0,0,0-2.59,0c-.73.41-.75,1.08,0,1.5a2.85,2.85,0,0,0,2.59,0C200.22,187.17,200.24,186.5,199.54,186.08Z"/><path class="cls-152" d="M199.9,185.65a3.62,3.62,0,0,0-3.3,0c-.93.52-1,1.38-.07,1.91a3.62,3.62,0,0,0,3.3,0C200.77,187.05,200.8,186.19,199.9,185.65Zm-.41,1.93a2.85,2.85,0,0,1-2.59,0c-.7-.42-.68-1.09,0-1.5a2.88,2.88,0,0,1,2.59,0C200.24,186.5,200.22,187.17,199.49,187.58Z"/><path class="cls-153" d="M192.6,185.86l1.37-1.08c-1.5,1.18-1.37,2.85.44,3.94a8.24,8.24,0,0,0,7.46.07c1.94-1.08,2.15-2.81.58-4l1.38,1.07c2.07,1.6,1.79,3.9-.78,5.33a10.9,10.9,0,0,1-9.87-.1C190.79,189.62,190.62,187.42,192.6,185.86Z"/><path class="cls-154" d="M201.87,188.79a8.24,8.24,0,0,1-7.46-.07c-1.48-.89-1.83-2.16-1.1-3.24-.83,1.1-.49,2.42,1,3.33a8.21,8.21,0,0,0,7.46.08,3.6,3.6,0,0,0,1.24-1.07A3.74,3.74,0,0,1,201.87,188.79Z"/><path class="cls-155" d="M189.53,191.4c0-1,0-2.08,0-3.13a4.28,4.28,0,0,0,2.42,3.47,13.54,13.54,0,0,0,12.29.13c1.78-1,2.67-2.32,2.67-3.65v3.13c0,1.33-.89,2.65-2.67,3.65a13.54,13.54,0,0,1-12.29-.13A4.28,4.28,0,0,1,189.53,191.4Z"/><path class="cls-154" d="M204.24,191.87a13.54,13.54,0,0,1-12.29-.13,4.26,4.26,0,0,1-2.42-3.46v.14a4.28,4.28,0,0,0,2.42,3.47,13.54,13.54,0,0,0,12.29.12c1.78-1,2.67-2.31,2.67-3.64v-.15C206.91,189.55,206,190.87,204.24,191.87Z"/><polygon class="cls-13" points="283.93 282.05 261.07 295.34 268.18 341.9 283.96 332.73 299.84 341.9 306.95 295.34 283.93 282.05"/><polygon class="cls-156" points="284.12 315.1 284.08 355.53 260.47 341.9 249.89 295.34 284.12 315.1"/><polygon class="cls-157" points="318.13 295.34 307.55 341.9 284.08 355.53 284.12 315.1 318.13 295.34"/><polygon class="cls-16" points="259.23 336.46 260.47 341.9 284.08 355.53 284.1 355.52 284.1 350.82 259.23 336.46"/><polygon class="cls-17" points="308.78 336.47 284.1 350.82 284.1 355.52 307.55 341.9 308.78 336.47"/><polygon class="cls-18" points="284.12 315.98 317.89 296.36 318.13 295.34 284.12 315.1 249.89 295.34 250.12 296.35 284.12 315.98"/><path class="cls-19" d="M283.9,275.58l34.23,19.76-34,19.76-34.23-19.76Zm.18,33L307,295.34l-23-13.29-22.86,13.29,23,13.28"/><path class="cls-20" d="M270.69,307.35c.31,0,.64,0,1,0a8.52,8.52,0,0,0,5.4-2.73l-16-9.25,13.7-8c-2.25-.53-4.17.26-7-2.09a2.23,2.23,0,0,1-.24-.19l-17.63,10.25Z"/><path class="cls-158" d="M262,232.2c.9-6-1.25-6,.63-12,2.17-6,5.08-8.29,7.57-14,4.1,4.68,7.57,6,11.45,11,3.62,5.18,1.59,5.87,4.26,11.28,2.4,5.52,5,5,7.1,10.78,1.86,5.9-1.21,6.31-.29,12.22.64,5.94,4.18,5.78,4.49,12,0,6.19-4,6.08-4.85,12.05-1.17,5.95,3.19,6.41,1.59,12.51-1.9,6-6.58,5.21-9.34,10.82-4.34-4.51-8.55-2.29-12.19-7.47-3.37-5.32.64-7.09-2.29-12.4-2.66-5.42-6.41-4.11-8.27-10-1.59-6,1.84-6.9.65-12.76-.92-5.9-4-5.36-4-11.55C258.82,238.43,261.43,238.19,262,232.2Z"/><path class="cls-22" d="M297.25,263.43c-.24-4.74-2.38-5.75-3.66-8.66a10.76,10.76,0,0,1-.84,2.12c-2.16,4.79-5.08,3.68-7,8.75-1.71,5.16,1.63,6.16.74,11.39-.64,5.28-4.41,4.48-4.74,10-.06,4.79,3,5.9,4.33,9.58,2.74-3.32,6.33-3.53,7.93-8.63,1.6-6.1-2.76-6.56-1.59-12.51C293.29,269.51,297.27,269.62,297.25,263.43Z"/><path class="cls-22" d="M261.4,235.41c2.23,2.92,1.28,4.06,3.89,7.88,2.76,4.51,4.93,3.7,7.5,8.5,2.34,4.91-.28,5.64,1.25,10.67,1.29,5.09,4.35,4.51,5.38,9.85.78,5.38-2.69,5.77-2.73,11.07-.29,5.32,3.56,5.19,2.92,10.69a9,9,0,0,1-.4,1.55c-2.38-.77-4.66-1.31-6.75-4.28-3.37-5.32.64-7.09-2.29-12.4-2.66-5.42-6.41-4.11-8.27-10-1.59-6,1.84-6.9.65-12.76-.92-5.9-4-5.36-4-11.55C258.76,239.78,260.4,238.57,261.4,235.41Z"/><g class="cls-159"><g class="cls-24"><line class="cls-25" x1="269.76" y1="203.13" x2="285.19" y2="302.27"/><polyline class="cls-25" points="257.67 278.81 283.75 293.07 304.27 271.56"/><polyline class="cls-25" points="255.29 263.47 281.37 277.73 301.88 256.22"/><polyline class="cls-25" points="252.9 248.13 278.98 262.38 299.5 240.88"/><polyline class="cls-25" points="250.51 232.79 276.59 247.04 297.11 225.54"/><polyline class="cls-25" points="248.13 217.45 274.21 231.7 294.72 210.2"/><polyline class="cls-25" points="245.74 202.1 271.82 216.36 292.33 194.85"/></g></g><path class="cls-160" d="M230.57,267.61c-2.66-4.59-4.16-3.45-6.17-8.62-1.78-5.3-1-8.48-2.45-13.76,5.37,1,8.48,0,13.91,1.31,5.32,1.58,4.3,3.16,9.1,5.43,4.67,2.48,6.13.68,10.77,3.52,4.51,3,2.63,5,6.49,8.55,3.7,3.74,6,1.69,9.64,5.76,3.4,4.25.61,6.35,3.26,10.94,2.45,4.73,5.7,2.66,7.94,7.73,2,5.19-1.67,7.18-.5,12.55-5.45-.73-7.13,3.1-12.47,1.53-5.23-1.81-3.44-5.22-8.36-7.27-4.79-2.26-6.65.69-11.16-2.35-4.36-3.24-2.51-5.75-6.54-9.12-3.86-3.55-5.66-1.51-9.07-5.75C231.76,273.66,233.42,272.06,230.57,267.61Z"/><g class="cls-161"><g class="cls-24"><line class="cls-25" x1="219.96" y1="243.4" x2="284.82" y2="303.1"/><polyline class="cls-25" points="253.07 302.04 278.8 297.56 281.13 271.55"/><polyline class="cls-25" points="243.03 292.8 268.76 288.32 271.1 262.31"/><polyline class="cls-25" points="233 283.56 258.73 279.08 261.06 253.07"/><polyline class="cls-25" points="222.96 274.32 248.69 269.84 251.02 243.83"/><polyline class="cls-25" points="212.92 265.08 238.65 260.61 240.98 234.59"/><polyline class="cls-25" points="202.88 255.84 228.61 251.37 230.94 225.35"/></g></g><path class="cls-162" d="M316.24,244.42c4.4-3,3.15-4.38,8.17-6.76,5.16-2.14,8.38-1.63,13.55-3.41-.59,5.43.62,8.47-.33,14-1.2,5.42-2.86,4.52-4.78,9.46-2.14,4.83-.25,6.16-2.75,11-2.72,4.71-4.81,3-8.08,7.07-3.47,3.95-1.26,6.14-5.07,10-4,3.69-6.29,1.06-10.68,4-4.54,2.77-2.26,5.87-7.15,8.46-5,2.36-7.28-1.16-12.56.38.34-5.48-3.59-6.89-2.4-12.33,1.43-5.35,5-3.8,6.66-8.85,1.92-4.94-1.15-6.59,1.56-11.3,2.93-4.58,5.56-2.91,8.64-7.16,3.28-4.1,1.12-5.76,5.11-9.45C310.29,246,312,247.58,316.24,244.42Z"/><g class="cls-163"><g class="cls-24"><line class="cls-25" x1="339.65" y1="232.14" x2="284.64" y2="301.03"/><polyline class="cls-25" points="283.48 269.29 289.75 294.64 315.86 295.14"/><polyline class="cls-25" points="291.99 258.63 298.26 283.98 324.37 284.48"/><polyline class="cls-25" points="300.5 247.96 306.77 273.32 332.88 273.82"/><polyline class="cls-25" points="309.01 237.3 315.28 262.66 341.4 263.16"/><polyline class="cls-25" points="317.52 226.64 323.79 251.99 349.91 252.49"/><polyline class="cls-25" points="326.04 215.98 332.31 241.33 358.42 241.83"/></g></g><path class="cls-164" d="M49.08,83a2.52,2.52,0,0,1,1.09,2.36c-.12.89-.81,1.27-1.53.85a2.53,2.53,0,0,1-1.09-2.36C47.67,82.93,48.36,82.55,49.08,83Zm-.32,2.34c.33.2.65,0,.7-.39a1.15,1.15,0,0,0-.5-1.08c-.33-.19-.64,0-.7.39a1.16,1.16,0,0,0,.5,1.08"/><path class="cls-165" d="M288,8.27a3.85,3.85,0,0,1,1.67,3.61c-.19,1.37-1.23,2-2.34,1.32a3.87,3.87,0,0,1-1.67-3.63C285.81,8.21,286.86,7.62,288,8.27Zm-.55,4.05c.71.41,1.39,0,1.51-.85a2.52,2.52,0,0,0-1.08-2.34c-.72-.4-1.39,0-1.51.85a2.5,2.5,0,0,0,1.08,2.34"/><path class="cls-166" d="M93.13,25a4,4,0,0,1,1.56,1.67,16.65,16.65,0,0,0,.88,1.58,2.7,2.7,0,0,0,.86.76,1.41,1.41,0,0,0,1.29.18A5,5,0,0,1,99,28.73a2.19,2.19,0,0,1,1.27.36.67.67,0,0,1,.29.63c0,.25-.21.35-.41.24a1.38,1.38,0,0,0-1.29-.18,4.82,4.82,0,0,1-1.27.43,2.17,2.17,0,0,1-1.23-.34,4.19,4.19,0,0,1-1.6-1.69,15.24,15.24,0,0,0-.88-1.57,2.61,2.61,0,0,0-.86-.77,1.44,1.44,0,0,0-1.29-.18,4.86,4.86,0,0,1-1.26.44,2.17,2.17,0,0,1-1.23-.34,4.12,4.12,0,0,1-1.6-1.69,16.38,16.38,0,0,0-.88-1.57,2.61,2.61,0,0,0-.86-.77,1.35,1.35,0,0,0-1.28-.17,5.37,5.37,0,0,1-1.27.43,2.17,2.17,0,0,1-1.23-.34A4.12,4.12,0,0,1,80.51,20a16.38,16.38,0,0,0-.88-1.57,2.67,2.67,0,0,0-.85-.77.68.68,0,0,1-.3-.64.27.27,0,0,1,.42-.23,4.18,4.18,0,0,1,1.56,1.67A14.69,14.69,0,0,0,81.34,20a2.66,2.66,0,0,0,.85.76,1.41,1.41,0,0,0,1.29.18,4.52,4.52,0,0,1,1.26-.43,2.23,2.23,0,0,1,1.27.35,4,4,0,0,1,1.56,1.67,14.63,14.63,0,0,0,.89,1.58,2.56,2.56,0,0,0,.85.76,1.41,1.41,0,0,0,1.29.18,4.87,4.87,0,0,1,1.26-.43A2.23,2.23,0,0,1,93.13,25Z"/><path class="cls-166" d="M312.87,328.21a4,4,0,0,1,1.56,1.67,16.38,16.38,0,0,0,.88,1.57,2.72,2.72,0,0,0,.86.77,1.43,1.43,0,0,0,1.3.18,4.74,4.74,0,0,1,1.26-.43,2.19,2.19,0,0,1,1.27.36.7.7,0,0,1,.3.63c0,.24-.22.35-.42.24a1.38,1.38,0,0,0-1.29-.18,4.5,4.5,0,0,1-1.27.42,2.07,2.07,0,0,1-1.23-.33,4.19,4.19,0,0,1-1.6-1.69,15.24,15.24,0,0,0-.88-1.57,2.61,2.61,0,0,0-.86-.77,1.41,1.41,0,0,0-1.29-.18,5.26,5.26,0,0,1-1.26.44A2.17,2.17,0,0,1,309,329a4.12,4.12,0,0,1-1.6-1.69,15.24,15.24,0,0,0-.88-1.57,2.61,2.61,0,0,0-.86-.77,1.39,1.39,0,0,0-1.28-.18,4.6,4.6,0,0,1-1.27.43,2.07,2.07,0,0,1-1.23-.33,4.12,4.12,0,0,1-1.6-1.69,15.24,15.24,0,0,0-.88-1.57,2.67,2.67,0,0,0-.85-.77.68.68,0,0,1-.3-.64.27.27,0,0,1,.42-.23,4.18,4.18,0,0,1,1.56,1.67,14.69,14.69,0,0,0,.88,1.58,2.66,2.66,0,0,0,.85.76,1.44,1.44,0,0,0,1.29.18,4.52,4.52,0,0,1,1.26-.43,2.15,2.15,0,0,1,1.27.35,4,4,0,0,1,1.56,1.67,16.55,16.55,0,0,0,.89,1.58,2.56,2.56,0,0,0,.85.76,1.41,1.41,0,0,0,1.29.18,4.52,4.52,0,0,1,1.26-.43A2.23,2.23,0,0,1,312.87,328.21Z"/><path class="cls-7" d="M14.65,293.18a4.22,4.22,0,0,1,1.57,1.68,14.47,14.47,0,0,0,.88,1.57,2.65,2.65,0,0,0,.85.76,1.41,1.41,0,0,0,1.3.19,4.41,4.41,0,0,1,1.26-.43,2.23,2.23,0,0,1,1.27.35.68.68,0,0,1,.3.64c0,.24-.22.34-.41.23a1.43,1.43,0,0,0-1.3-.18,4.82,4.82,0,0,1-1.27.43,2.23,2.23,0,0,1-1.23-.33,4.15,4.15,0,0,1-1.6-1.7,15.49,15.49,0,0,0-.88-1.57,2.59,2.59,0,0,0-.86-.76,1.38,1.38,0,0,0-1.29-.18,4.79,4.79,0,0,1-1.25.43,2.16,2.16,0,0,1-1.24-.33,4.21,4.21,0,0,1-1.6-1.7c-.34-.6-.56-1.14-.87-1.57a3,3,0,0,0-.86-.77,1.43,1.43,0,0,0-1.29-.17,5,5,0,0,1-1.26.43,2.16,2.16,0,0,1-1.24-.33,4.21,4.21,0,0,1-1.6-1.7c-.34-.6-.56-1.14-.87-1.57a2.81,2.81,0,0,0-.86-.76.66.66,0,0,1-.29-.65c0-.23.21-.34.41-.22A4.18,4.18,0,0,1,2,286.64a16.38,16.38,0,0,0,.88,1.57,2.79,2.79,0,0,0,.85.77,1.4,1.4,0,0,0,1.29.17,4.82,4.82,0,0,1,1.27-.43,2.24,2.24,0,0,1,1.26.36,4.14,4.14,0,0,1,1.57,1.67,14.47,14.47,0,0,0,.88,1.57,2.68,2.68,0,0,0,.85.77,1.4,1.4,0,0,0,1.29.17,4.82,4.82,0,0,1,1.27-.43A2.3,2.3,0,0,1,14.65,293.18Z"/><path class="cls-165" d="M294.71,205.21a.69.69,0,0,1,.33.66c0,.24-.21.35-.41.23a1.34,1.34,0,0,0-1.29-.17,5,5,0,0,1-1.27.42,2.17,2.17,0,0,1-1.27-.35,4.11,4.11,0,0,1-1.56-1.67,16.65,16.65,0,0,0-.88-1.58,2.71,2.71,0,0,0-.86-.76,1.35,1.35,0,0,0-1.29-.18,4.53,4.53,0,0,1-1.26.42,2.16,2.16,0,0,1-1.28-.34,4.15,4.15,0,0,1-1.55-1.67,15.49,15.49,0,0,0-.88-1.58,2.71,2.71,0,0,0-.86-.76,1.38,1.38,0,0,0-1.29-.18,4.13,4.13,0,0,1-1.26.42,2.13,2.13,0,0,1-1.27-.34,4.18,4.18,0,0,1-1.56-1.67,15.49,15.49,0,0,0-.88-1.58,2.71,2.71,0,0,0-.86-.76.69.69,0,0,1-.29-.64c0-.25.22-.34.41-.23a4.25,4.25,0,0,1,1.57,1.66,15.59,15.59,0,0,0,.87,1.58,2.72,2.72,0,0,0,.86.77,1.44,1.44,0,0,0,1.29.18,4.86,4.86,0,0,1,1.26-.44,2.17,2.17,0,0,1,1.23.34,4.26,4.26,0,0,1,1.61,1.68,14.57,14.57,0,0,0,.87,1.58,2.79,2.79,0,0,0,.85.77,1.37,1.37,0,0,0,1.29.17,5.53,5.53,0,0,1,1.27-.43,2.17,2.17,0,0,1,1.23.34,4.16,4.16,0,0,1,1.6,1.68,13.72,13.72,0,0,0,.89,1.58,2.47,2.47,0,0,0,.85.77,1.41,1.41,0,0,0,1.29.18,5,5,0,0,1,1.26-.43A2.08,2.08,0,0,1,294.71,205.21Z"/><path class="cls-165" d="M241.25,310.72a.7.7,0,0,1,.34.66c0,.24-.22.35-.42.23a1.38,1.38,0,0,0-1.29-.18,4.22,4.22,0,0,1-1.26.43,2.18,2.18,0,0,1-1.28-.35,4.25,4.25,0,0,1-1.56-1.67,16.65,16.65,0,0,0-.88-1.58,2.77,2.77,0,0,0-.85-.76,1.38,1.38,0,0,0-1.29-.18,4.5,4.5,0,0,1-1.27.42,2.22,2.22,0,0,1-1.27-.34,4.18,4.18,0,0,1-1.56-1.67,13.78,13.78,0,0,0-.88-1.58,2.77,2.77,0,0,0-.85-.76,1.38,1.38,0,0,0-1.29-.18,4.2,4.2,0,0,1-1.27.42,2.12,2.12,0,0,1-1.26-.34,4.14,4.14,0,0,1-1.57-1.67,13.78,13.78,0,0,0-.88-1.58,2.66,2.66,0,0,0-.85-.76.69.69,0,0,1-.29-.64c0-.25.22-.34.41-.23a4.22,4.22,0,0,1,1.56,1.66,14.48,14.48,0,0,0,.88,1.58,2.67,2.67,0,0,0,.85.77,1.43,1.43,0,0,0,1.3.18,4.45,4.45,0,0,1,1.25-.43,2.08,2.08,0,0,1,1.24.33,4.23,4.23,0,0,1,1.6,1.68,16.51,16.51,0,0,0,.87,1.58,2.68,2.68,0,0,0,.86.76,1.35,1.35,0,0,0,1.29.18,5.44,5.44,0,0,1,1.26-.43,2.18,2.18,0,0,1,1.24.34,4.23,4.23,0,0,1,1.6,1.68,14.48,14.48,0,0,0,.88,1.58,2.67,2.67,0,0,0,.85.77,1.44,1.44,0,0,0,1.29.18"/><path class="cls-167" d="M316.81,90.53a7.25,7.25,0,0,1,2.05,5.83c-.34,2.49-2.27,3.56-4.29,2.39l-12.4-7.16a9,9,0,0,1-3.9-8.45c.43-3.15,2.87-4.56,5.42-3.08a5.49,5.49,0,0,1,.54.35c1.46-2.48,4.17-3.12,6.9-1.54C314.72,80.94,317.18,86.08,316.81,90.53Zm-2,6.77c1.37.79,2.68.06,2.91-1.62A4.93,4.93,0,0,0,316,91.44a1.12,1.12,0,0,1-.41-1c.53-3.83-1.55-8.34-4.63-10.11-2.38-1.38-4.76-.71-5.9,1.67a.4.4,0,0,1-.62.18.38.38,0,0,1-.13-.09,4.33,4.33,0,0,0-.75-.55c-1.93-1.11-3.76-.09-4.08,2.28a6.77,6.77,0,0,0,2.91,6.32l12.41,7.16"/><path class="cls-168" d="M78.37,47.36c-1.21-.7-2.35-.06-2.55,1.42a4.38,4.38,0,0,0,1.24,3.5l-.22,1.61A1.16,1.16,0,0,0,77.33,55c.33.19.64,0,.69-.39L78.24,53c1,.22,1.78-.44,1.94-1.66A4.21,4.21,0,0,0,78.37,47.36Zm-.54,3.9a1.92,1.92,0,0,1-.83-1.8c.1-.68.62-1,1.17-.65A1.94,1.94,0,0,1,79,50.62C78.91,51.29,78.39,51.58,77.83,51.26Z"/><path class="cls-168" d="M81.78,46.21,82,44.33a5.23,5.23,0,0,0-2.26-4.9l-.62-.36c-1.5-.87-2.91-.07-3.16,1.77l-.26,1.88c-1.42-.67-2.72.13-3,1.88l-.91,6.74a5.23,5.23,0,0,0,2.26,4.9l5.61,3.24c1.51.87,2.92.07,3.17-1.76L83.83,51A5.28,5.28,0,0,0,81.78,46.21Zm-4.6-4.69c.14-1,.94-1.48,1.78-1l.62.36a2.93,2.93,0,0,1,1.28,2.76l-.25,1.87-3.69-2.13Zm5.47,8.77L81.73,57c-.14,1-.94,1.49-1.79,1l-5.62-3.24A3,3,0,0,1,73.05,52L74,45.28c.14-1,.94-1.48,1.78-1l.38.22L81,47.31l.37.22A2.94,2.94,0,0,1,82.65,50.29Z"/><path class="cls-169" d="M237.17,39.43s0-.06,0-.09a4.1,4.1,0,0,0-1.8-3.07l-11.83-6.83a1.52,1.52,0,0,0-2.33.74h0a2.55,2.55,0,0,0-.18.66l-1.37,10a4.18,4.18,0,0,0,1.8,3.91l11.82,6.83c1.2.69,2.33.06,2.53-1.41l1.37-10.06A3.65,3.65,0,0,0,237.17,39.43ZM223.33,30.9l11.83,6.82a1.79,1.79,0,0,1,.68.84l-7.44,2-5.86-9.67A.71.71,0,0,1,223.33,30.9ZM234.6,49.54c-.09.67-.6,1-1.14.65l-11.82-6.83a1.88,1.88,0,0,1-.82-1.77l1.26-9.27,5.77,9.52a1,1,0,0,0,.33.33.53.53,0,0,0,.36.07l7.32-2Z"/><path class="cls-9" d="M360.7,167.86c4.77,2.76,8.14,8.86,7.49,13.59-.47,3.52-3,5.4-6.47,4.82-2.46,2.09-5.87.23-6.25,0a1.1,1.1,0,0,1-.53-.82.63.63,0,0,1,.28-.7,4,4,0,0,0,1.39-.93c-3.88-3.12-6.31-8.27-5.75-12.38C351.5,166.71,355.92,165.1,360.7,167.86Zm.67,16.79c3,.58,5.24-.94,5.64-3.88.54-3.93-2.38-9.07-6.51-11.46s-7.92-1.12-8.45,2.81c-.5,3.65,1.95,8.35,5.71,10.94a1.15,1.15,0,0,1,.4.61.86.86,0,0,1-.05.68,4.65,4.65,0,0,1-.91,1.11,3.89,3.89,0,0,0,3.82-.72.39.39,0,0,1,.35-.09"/></g></g></g></svg>